<?xml version="1.0" encoding="UTF-8"?>
<svg id="Capa_1" data-name="Capa 1" xmlns="http://www.w3.org/2000/svg" viewBox="0 0 225.42 283.46">
  <defs>
    <style>
      .cls-1 {
        fill: #084766;
      }
    </style>
  </defs>
  <path class="cls-1" d="M50.02,247.57c-1.54.83-3.32,1.24-5.32,1.24-2.19,0-4.2-.51-6.01-1.53-1.81-1.02-3.26-2.45-4.34-4.29-1.08-1.84-1.62-4.01-1.62-6.49s.54-4.68,1.62-6.51c1.08-1.83,2.53-3.25,4.34-4.27,1.81-1.02,3.82-1.53,6.01-1.53,1.24,0,2.38.16,3.41.48,1.03.32,1.97.78,2.81,1.38.84.6,1.63,1.34,2.36,2.19l4.1-4.01c-1.05-1.21-2.22-2.23-3.51-3.05-1.29-.83-2.7-1.45-4.22-1.88-1.53-.43-3.18-.64-4.96-.64-2.51,0-4.86.45-7.04,1.36s-4.08,2.17-5.7,3.79-2.88,3.51-3.77,5.68c-.89,2.16-1.34,4.5-1.34,7.01s.44,4.85,1.34,7.01c.89,2.16,2.15,4.05,3.77,5.68,1.62,1.62,3.52,2.89,5.7,3.79,2.18.91,4.52,1.36,7.04,1.36,1.88,0,3.64-.25,5.3-.74,1.65-.49,3.18-1.21,4.58-2.15,1.4-.94,2.64-2.04,3.72-3.31l-4.15-3.96c-1.21,1.43-2.58,2.56-4.13,3.39Z"/>
  <path class="cls-1" d="M78.61,230.13c-1.77-1.1-3.94-1.65-6.51-1.65-2.42,0-4.55.6-6.39,1.79-1.84,1.19-3.29,2.77-4.34,4.75-1.05,1.97-1.57,4.12-1.57,6.44,0,2.48.54,4.69,1.62,6.63,1.08,1.94,2.57,3.47,4.46,4.58,1.89,1.11,4.06,1.67,6.51,1.67,2.67,0,4.92-.59,6.75-1.76,1.83-1.18,3.3-2.74,4.41-4.68l-4.63-2.29c-.6,1.05-1.44,1.92-2.5,2.62-1.07.7-2.38,1.05-3.94,1.05-1.3,0-2.5-.3-3.58-.91-1.08-.6-1.95-1.5-2.6-2.7-.46-.85-.76-1.85-.89-2.98h18.47c.03-.16.06-.41.1-.74.03-.33.05-.71.05-1.12,0-2.32-.46-4.41-1.38-6.27-.92-1.86-2.27-3.34-4.03-4.44ZM65.66,238.55c.14-.53.3-1.04.53-1.5.57-1.19,1.38-2.13,2.43-2.81,1.05-.68,2.23-1.03,3.53-1.03,1.02,0,1.91.17,2.67.5.76.33,1.42.77,1.96,1.31.54.54.95,1.12,1.22,1.74.27.62.42,1.22.45,1.79h-12.79Z"/>
  <path class="cls-1" d="M106.18,230.13c-1.77-1.1-3.94-1.65-6.51-1.65-2.42,0-4.55.6-6.39,1.79-1.84,1.19-3.29,2.77-4.34,4.75-1.05,1.97-1.57,4.12-1.57,6.44,0,2.48.54,4.69,1.62,6.63,1.08,1.94,2.57,3.47,4.46,4.58,1.89,1.11,4.06,1.67,6.51,1.67,2.67,0,4.92-.59,6.75-1.76,1.83-1.18,3.3-2.74,4.41-4.68l-4.63-2.29c-.6,1.05-1.44,1.92-2.5,2.62-1.07.7-2.38,1.05-3.94,1.05-1.3,0-2.5-.3-3.58-.91-1.08-.6-1.95-1.5-2.6-2.7-.46-.85-.76-1.85-.89-2.98h18.47c.03-.16.06-.41.09-.74.03-.33.05-.71.05-1.12,0-2.32-.46-4.41-1.38-6.27-.92-1.86-2.27-3.34-4.03-4.44ZM93.23,238.55c.14-.53.3-1.04.53-1.5.57-1.19,1.38-2.13,2.43-2.81,1.05-.68,2.23-1.03,3.53-1.03,1.02,0,1.91.17,2.67.5.76.33,1.42.77,1.96,1.31.54.54.95,1.12,1.22,1.74.27.62.42,1.22.45,1.79h-12.79Z"/>
  <path class="cls-1" d="M135.95,237.12c-.88-.83-1.86-1.51-2.96-2.05-1.1-.54-2.22-1.02-3.36-1.43l-2.19-.72c-1.94-.64-3.38-1.34-4.32-2.1-.94-.76-1.41-1.7-1.41-2.82,0-.79.23-1.49.69-2.07.46-.59,1.09-1.05,1.88-1.38.79-.33,1.67-.5,2.62-.5,1.08,0,2,.19,2.77.57.76.38,1.38.88,1.84,1.5.46.62.79,1.25.98,1.88l5.2-2.19c-.35-1.02-.95-2.08-1.79-3.17-.84-1.1-2-2.03-3.48-2.81-1.48-.78-3.35-1.17-5.61-1.17-2.13,0-4.01.42-5.65,1.26-1.64.84-2.91,1.98-3.82,3.41-.91,1.43-1.36,3.02-1.36,4.77,0,1.34.24,2.5.72,3.51.48,1,1.1,1.88,1.88,2.65.78.76,1.65,1.41,2.6,1.93.95.53,1.89.96,2.81,1.31l2.1.76c1.65.6,2.98,1.19,3.98,1.77,1,.57,1.73,1.18,2.19,1.84.46.65.69,1.45.69,2.41s-.27,1.81-.81,2.48c-.54.67-1.24,1.18-2.1,1.53-.86.35-1.78.53-2.77.53-1.88,0-3.41-.6-4.6-1.79-1.19-1.19-2.03-2.66-2.5-4.41l-5.49,2.15c.6,2.1,1.53,3.86,2.79,5.29,1.26,1.43,2.73,2.5,4.41,3.22,1.68.72,3.45,1.07,5.29,1.07,1.34,0,2.69-.2,4.05-.6,1.37-.4,2.62-1.01,3.75-1.84,1.13-.83,2.04-1.88,2.74-3.17.7-1.29,1.05-2.81,1.05-4.56,0-1.59-.25-2.96-.76-4.1-.51-1.14-1.2-2.13-2.07-2.96Z"/>
  <path class="cls-1" d="M163,240.56c0,1.56-.28,2.97-.84,4.22-.56,1.26-1.38,2.24-2.46,2.96s-2.42,1.07-4.01,1.07-2.93-.36-4.03-1.07c-1.1-.72-1.92-1.7-2.46-2.96-.54-1.26-.81-2.66-.81-4.22v-21.13h-5.82v20.8c0,2.89.55,5.4,1.65,7.51,1.1,2.12,2.62,3.75,4.58,4.89,1.96,1.14,4.25,1.72,6.89,1.72s5.02-.6,6.96-1.79c1.94-1.19,3.44-2.85,4.51-4.98,1.06-2.13,1.6-4.58,1.6-7.35v-20.8h-5.77v21.13Z"/>
  <path class="cls-1" d="M189.59,239.67c1.49-.52,2.78-1.26,3.86-2.22,1.08-.95,1.92-2.06,2.5-3.32.59-1.26.88-2.63.88-4.13,0-2.07-.48-3.9-1.43-5.49-.95-1.59-2.27-2.84-3.94-3.75-1.67-.91-3.6-1.36-5.8-1.36h-12.26v34.15h5.87v-13.12h3.53l9.01,13.12h6.73v-.33l-9.37-13.45c.13-.04.27-.08.4-.12ZM185.58,235.12h-6.3v-10.26h6.44c1.11,0,2.07.25,2.86.74.79.49,1.39,1.12,1.79,1.89.4.76.6,1.59.6,2.48,0,.99-.24,1.87-.72,2.65-.48.78-1.12,1.39-1.93,1.84-.81.45-1.73.67-2.74.67Z"/>
  <path class="cls-1" d="M124.78,87.78s-.05,0-.07,0c-.26.07-.54.07-.8.01-.31-.08-.75-.44-1.08-.22-.15.1-.19.32-.15.48.06.23.26.33.42.49,0,0,.02.02.02.03,0,.02-.01.03-.02.04-.14.15-.19.37-.12.56.07.19.25.33.45.35.19.02.38-.06.56-.15.19-.09.38-.18.57-.26.02-.01.05-.02.06-.04.04-.05.02-.13-.02-.18-.04-.05-.09-.1-.11-.17-.04-.13.09-.25.19-.35.12-.12.23-.26.31-.42-.06-.05-.11-.1-.17-.16-.01-.01-.02-.02-.04-.03Z"/>
  <path class="cls-1" d="M74.5,105.61c-.61-.4-1.3-.66-1.97-.97-.66-.31-1.32-.68-1.78-1.25-.11-.13-.2-.27-.32-.38-.1-.09-.22-.17-.35-.23-.71-.39-1.54-.57-2.35-.53-.17.01-.37.05-.46.2-.11.2.06.43.21.59.5.53,1.04,1.02,1.46,1.62.14.21.3.42.36.67.07.36-.04.7-.03,1.06.02.58.56,1.08,1.13,1.07.44,0,.87-.27,1.29-.15.29.08.5.32.74.5.31.24.68.4,1.07.46.21.03.44.02.58-.13.11-.13.12-.31.22-.45.1-.15.27-.22.41-.32.42-.31.51-.98.19-1.4-.11-.14-.26-.25-.4-.35Z"/>
  <path class="cls-1" d="M149.12,90.33c-.05-.2-.17-.44-.38-.44-.11,0-.21.07-.31.13s-.22.1-.32.04c-.31-.18-.31-1.18-.92-.84-.19.11-.33.47-.21.66.1.15.34.14.46.27.04.05.06.11.11.15.07.07.16.11.26.14.19.07.38.16.55.27.1.07.21.14.32.18.12.04.26.04.35-.04.14-.12.13-.34.08-.52Z"/>
  <path class="cls-1" d="M139.12,73.11s.06-.01.08-.03c.07-.05.05-.16.02-.24.07,0,.13-.01.19-.05.06-.03.1-.09.1-.16,0-.04-.03-.07-.05-.11-.14-.21-.29-.44-.5-.59-.21-.15-.51-.18-.76-.26-.19-.06-.4-.11-.57-.02-.03.02-.07.04-.08.08-.02.04-.01.09,0,.13.03.12.08.22.15.32-.05.04-.12,0-.18,0-.09.01-.14.12-.12.2.02.09.08.16.14.22.41.39,1.01.58,1.58.48Z"/>
  <path class="cls-1" d="M139.59,74.99c.22.19.51.28.76.41.25.14.5.37.5.66,0,.15-.07.3-.09.45-.05.27.05.54.18.77.3.54.82.96,1.42,1.13.04.01.08.02.12.01.09-.03.11-.14.11-.23,0-.22-.03-.43-.11-.63-.11-.3-.3-.61-.21-.91.04-.14.14-.26.13-.4,0-.11-.06-.2-.12-.29-.37-.56-.83-1.07-1.36-1.48-.25-.2-.49-.4-.72-.63-.18-.18-.37-.33-.63-.23-.61.23-.36,1.05.02,1.38Z"/>
  <path class="cls-1" d="M106.01,66.57c-.15,0-.31.01-.45-.05-.13-.06-.23-.17-.35-.23-.17-.09-.38-.07-.57-.05-.58.06-1.15.12-1.73.18-.7.08-1.4.15-2.1.23-.9.1-1.81.19-2.68.45-.23.07-.46.15-.64.31-.2.19-.39.71.02.76.79.1,1.58-.17,2.36-.28.98-.15,1.99-.06,2.98-.07.52,0,1.05-.04,1.55-.17.38-.1.75-.25,1.14-.34.68-.16,1.39-.13,2.08-.06.46.04.93.1,1.39.03.46-.06.92-.26,1.21-.62.04-.06.08-.13.06-.2-.03-.09-.15-.1-.25-.09-1.34.07-2.69.14-4.03.2Z"/>
  <path class="cls-1" d="M142.57,40.87c-.57-.45-1.25-.76-1.96-.9-.53-.11-1.09-.13-1.55-.39-.31-.18-.55-.44-.83-.66-.57-.43-1.44-.6-1.96-.11-.12.11-.21.25-.37.3-.1.03-.21.02-.32,0-.32-.08-.61-.27-.93-.34-.32-.07-.72,0-.86.31-.18.41.25.87.14,1.3-.07.27-.35.44-.62.51-.27.07-.55.06-.83.13-.36.08-.68.28-1.02.42-.34.13-.75.19-1.06,0-.24-.15-.39-.42-.65-.53-.54-.24-1.07.35-1.63.52-.39.12-.81.03-1.21-.04-1.1-.2-2.22-.29-3.33-.26-.57.01-1.14.05-1.7.13-.43.06-.95.08-1.36.23-.32.11-.6.37-.66.7-.07.39.2.78.55.97.35.19.75.23,1.15.27.25.02.52.04.73-.08.22-.12.34-.45.17-.63,2.26.03,4.51.07,6.77.1.41,0,.83.01,1.21.15.28.1.53.25.79.39.53.28,1.1.49,1.7.52.6.02,1.22-.16,1.64-.59.2-.2.35-.45.57-.62.31-.23.71-.3,1.06-.46.35-.16.68-.51.59-.89-.08-.32-.44-.58-.32-.89.07-.17.28-.25.46-.23s.34.12.5.21c1.48.86,3.18,1.5,4.87,1.29.23-.03.5-.12.53-.35.03-.18-.13-.34-.27-.45Z"/>
  <path class="cls-1" d="M125.06,178.22s-.14-.27-.17-.3c-.08-.11.02-.08-.13-.13-.07-.03-.19,0-.26,0-.36-.02-.69-.03-1.04.08-.06.02-.14.06-.13.13,0,.03.02.05.04.07.11.14.27.24.44.28.08.02.17.03.23.09.06.06.07.14.1.22.07.15.25.23.41.21.16-.01.31-.11.41-.23-.06-.03-.11-.05-.15-.1-.04-.05-.05-.12,0-.17.07-.08.24-.03.27-.13Z"/>
  <path class="cls-1" d="M130.46,176.65c-.09.03-.17.09-.26.13-.3.15-.66.13-1,.21-.19.04-.36.12-.54.19-.64.25-1.35.36-1.98.63-.56.24.19.86.54.92.54.09,1.04-.29,1.58-.38.3-.05.62-.01.89.11.18.08.35.2.55.26.19.06.43.04.56-.12.04-.05.07-.11.11-.15.07-.06.16-.07.25-.07.25.01.49.13.75.15.25.03.56-.08.61-.33.03-.12,0-.26.07-.35-.59-.19-.98-.76-1.52-1.07-.19-.11-.42-.19-.62-.12Z"/>
  <path class="cls-1" d="M198.56,114.97c0-11.59-2.27-22.83-6.75-33.42-4.32-10.22-10.51-19.4-18.4-27.29-7.88-7.88-17.06-14.07-27.29-18.4-10.58-4.48-21.83-6.75-33.42-6.75s-22.83,2.27-33.42,6.75c-10.22,4.32-19.4,10.51-27.29,18.4-7.88,7.88-14.07,17.06-18.4,27.29-4.48,10.59-6.75,21.83-6.75,33.42s2.27,22.83,6.75,33.42c4.32,10.22,10.51,19.4,18.4,27.29,7.88,7.88,17.06,14.07,27.29,18.4,10.59,4.48,21.83,6.75,33.42,6.75s22.83-2.27,33.42-6.75c10.22-4.32,19.4-10.51,27.29-18.4,7.88-7.88,14.07-17.06,18.4-27.29,4.48-10.59,6.75-21.83,6.75-33.42ZM72.97,62.58c1-1.01,1.99-2.03,3.19-2.75.97-.58,2.03-1,3.13-1.14.97-.12,1.76.77,1.51,1.71v.02c1.35.04,2.72-.54,3.65-1.53.97,2.25,3.08,4.25,5.78,4.87-1.62.18-3.22.61-4.71,1.28,2.16.67,4.33,1.33,6.49,2-5.73,2.48-11.02,6-15.63,10.46l-3.56-3.56c.41.06.83,0,1.12-.28.27-.26.36-.67.33-1.04-.02-.35-.15-.7-.4-.95-.25-.25-.64-.37-.97-.26-.17.06-.33.17-.51.2-.33.04-.66-.26-.91-.08-.47-.22-.53-.25-1-.48.09-2.93,1.17-5.76,2.47-8.47ZM94.78,161.62c.15.29.33.57.52.83-6.56-2.4-12.6-6.17-17.76-11.17l10.44-10.44c5.42,5.18,12.45,8.68,20.26,9.65-.14.19-.27.4-.37.62-.28.62-.34,1.36-.81,1.85-1.09,1.11-2.99-.12-4.49.25-1.07.26-1.76,1.29-2.23,2.29-.47,1-.85,2.09-1.69,2.81-1.14.96-2.92,1.05-3.83,2.23-.11.14-.2.31-.22.48-.02.21.07.41.17.6ZM62.19,138.67l-.26-.6.87.43c.2.1.42.13.63.1l.49-.07c.36-.05.68-.28.84-.61.18-.37.36-.74.54-1.1,2.44,5.28,5.78,10.17,9.94,14.46l-3.47,3.47c-.69-1.13-1.51-2.18-2.44-3.13-.36-.36-.75-.73-.93-1.21-.1-.27-.13-.57-.24-.84-.29-.7-1.04-1.06-1.66-1.47-2.7-1.77-3.7-5.19-4.51-8.31-.05-.18.02-.41.12-.55.12-.17.15-.39.07-.58ZM66.25,134.94c.32-.63.63-1.27.94-1.92.37-.78.87-1.66,1.73-1.79,1.08-.16,2.15,1,3.14.57.41-.18.67-.58,1-.87.62-.54,1.48-.7,2.13-1.19.69-.53,1.05-1.38,1.54-2.1.47-.69,1.23-1.33,2.05-1.22,1.69,5.02,4.47,9.54,8.06,13.29l-10.44,10.44c-4.34-4.48-7.76-9.62-10.15-15.19ZM74.62,115.79h2.3c.01.51.04,1.01.07,1.51-.83-.49-1.71-.94-2.37-1.51ZM87.99,138.54c-3.72-3.9-6.52-8.67-8.08-13.98.38-.15.69-.43.86-.8.45-1.02-.69-1.49-1.11-2.26-.3-.54-.23-1.19-.38-1.78-.1-.39-.29-.73-.53-1.03-.1-.96-.17-1.92-.19-2.9h14.75c.2,4.74,2.1,9.05,5.11,12.33l-10.43,10.43ZM94.93,115.79h5.18c.33,1.16.61,2.34,1.09,3.43.43.96,1.01,1.85,1.72,2.63.28.3.58.59.91.85l-4.26,4.26c-2.72-2.98-4.44-6.88-4.64-11.17ZM102.97,107.2c-.25.3-.66.4-1.04.45-1.05.16-2.23.16-2.98.91-.67.66-.77,1.73-.55,2.64.22.92.7,1.74,1.06,2.61.05.11.09.22.13.34h-4.66c.19-4.29,1.92-8.2,4.64-11.17l3.62,3.62c-.02.22-.08.42-.22.6ZM93.3,114.16h-14.75c.21-8.81,3.76-16.8,9.44-22.75l10.43,10.43c-3.01,3.27-4.92,7.58-5.11,12.33ZM76.92,114.16h-3.3s-.02-.09-.02-.14c-1.09.08-2.29.13-3.19-.5-1.43-1-1.88-3.53-3.63-3.5-1.11.02-1.93,1.2-3.04,1.27-.52.03-.99-.18-1.4-.51.95-11.65,5.86-22.49,14.06-30.96l10.44,10.44c-5.97,6.25-9.71,14.65-9.92,23.91ZM58.88,76.86c.67-.54.98-1.45,1.67-1.96.81-.6,1.92-.51,2.92-.4,1.61.18,3.21.36,4.82.55.57.07,1.19.12,1.66-.21.32-.22.48-.55.56-.92l4.74,4.74c-8.08,8.33-13.06,18.89-14.37,30.28-1.23-1.94-2.22-4.02-2.94-6.21-.69-2.12-1.38-4.62-3.45-5.45-.25,1.85-.51,3.7-.76,5.55-.12.92-.27,1.89-.88,2.59-.75.87-2.07,1.17-2.62,2.18-.21.39-.28.85-.5,1.24-.3.53-.86.85-1.28,1.29-.42.44-.71,1.15-.36,1.64-.71-.15-1.48-.3-2.14,0-.03.01-.06.03-.09.05.04-.81.09-1.61.16-2.42.22-.06.46-.1.68-.19,1.47-.59,1.37-3.19,2.91-3.53.49-.11,1.02.07,1.5-.06.94-.26,1.19-1.44,1.27-2.41.25-3.1.51-6.2.76-9.3.21-2.57.42-5.16.35-7.74-.5-.12-.98.11-1.41.41,1.48-3.15,3.21-6.19,5.18-9.09.59-.11,1.16-.26,1.63-.63ZM43.97,95.18c2.51-1.44,4.23-4.17,4.45-7.06.91-.2,1.57-1.03,1.9-1.91.33-.88.4-1.83.6-2.74.49-2.24,1.93-4.36,3.96-5.33-3.26,5.1-5.82,10.6-7.61,16.35-.26.19-.49.42-.72.64-.87.86-1.73,1.72-2.6,2.58-.27-.82-.26-1.72.03-2.53ZM42.6,113.68c.28-.7,1.02-1.08,1.62-1.56-.03.68-.04,1.35-.05,2.03h-1.68c.02-.16.05-.32.11-.47ZM33.98,94.64c.16-1.41.41-2.81.74-4.19.09-.37.17-1.49.62-1.62.59-.16.32.53.2.83-.22.58-.11,1.27.28,1.75.38-.65.9-1.21,1.51-1.65.14.12.28.24.43.37.26-.33.54-.67.92-.86.38-.19.89-.17,1.17.15.13.15.21.37.39.46.36.18.7-.27.86-.64.41-.98.83-1.96,1.24-2.94.14,1.74-.47,3.45-1.07,5.09-.33.9-.65,1.79-.98,2.69-.17.47-.36.97-.75,1.3-.39.32-1.04.39-1.37,0-.48-.57.09-1.58-.4-2.15-.65.55-.32,1.66-.8,2.36-.33.48-.96.64-1.54.71-.38.04-.8.05-1.1-.18-.42-.33-.41-.95-.34-1.48ZM39.78,114.16h-2.7c-.21-.33-.35-.68-.26-1.06.19-.88,1.5-1.05,2.18-.46.44.38.67.94.78,1.52ZM32.53,110.21c.44-2.71,1.33-5.35,2.63-7.78.79,2.29.18,4.8-.15,7.21-.2,1.5-.29,3.01-.29,4.52h-2.55c.05-1.32.15-2.64.37-3.94ZM33.07,122.03c-.79-1.15-.88-2.62-.91-4.01-.02-.74-.03-1.49-.03-2.23h2.61c.09,2.68.39,5.37.7,8.04-.29.14-.57.27-.86.41-.21-.82-1.12-1.65-1.51-2.21ZM48.08,166.07s.06.06.09.09c-.46-1.2-.92-2.39-1.38-3.59-.14-.38-.27-.85,0-1.15.4-.44,1.11,0,1.5.45,2.16,2.55,3.52,6.12,6.65,7.29.23-.26.28-.67.11-.97.72.06,1.43.11,2.15.17-.57-.65-.28-1.67-.54-2.5-.15-.47-.49-.86-.82-1.23-1.76-1.97-3.58-3.88-5.46-5.73-.26-.26-.55-.53-.91-.59-.31-.06-.64.05-.95.03-.56-.04-1.01-.45-1.4-.84-1.22-1.23-2.37-2.53-3.47-3.87-1.21-1.47-2.37-2.99-3.47-4.54-.31-.44-.63-.89-.77-1.41-.18-.64-.09-1.31-.1-1.98-.03-1.54-.66-3.05-.52-4.59.07-.78.34-1.54.39-2.33.05-.79-.18-1.67-.85-2.08-.1,2.47-.2,4.94-.29,7.4-.49-.11-.8-.62-.89-1.11-.09-.5-.02-1-.05-1.51-.07-1.29-.78-2.47-.9-3.75-.13-1.35.41-2.67,1.02-3.88.77-1.53,1.69-3.39.78-4.85-.29.31-.83.28-1.19.04-.36-.24-.57-.64-.76-1.02-.4-.85-.71-1.75-.92-2.67.97-.34,1.75-1.16,2.05-2.14.33-.54.52-1.23.52-1.87,0-1.36-.47-2.76-.07-4.06.14-.46.39-.91.36-1.4,0-.03,0-.06-.01-.08h1.93c.03.68.09,1.35.41,1.94.09.15.2.3.32.43-.38.98-.38,1.96-.45,3.13-.11,2.06-.04,4.12.26,6.16.15,1.03.36,2.06.63,3.07.09.36,1,2.65.88,2.79.35-.4.92-.59,1.44-.5-.14,3.94.37,7.91,1.51,11.69-.39-.66-1.53-.27-1.76.46-.22.73.15,1.5.52,2.18,2.73,4.96,6.1,9.57,10,13.67,1.51,1.59,3.16,3.14,5.2,3.96.36.14.75.27,1.13.19.38-.08.71-.36,1.1-.4.27-.03.49.05.68.2l-7.9,7.9c-2.06-2.1-3.99-4.29-5.8-6.57ZM111.9,196.67l-4.44-.52c.39.5.89.86,1.45,1.12-9.78-.44-19.27-2.58-28.26-6.39-9.56-4.04-18.17-9.79-25.6-17.09l7.68-7.68c.15.26.3.52.49.72,1.13,1.26,3.13.51,4.8.12,12.23,10.55,27.6,16.38,43.89,16.57v13.15ZM111.9,181.89c-15.35-.18-29.88-5.5-41.61-15.14.41.02.81.08,1.21.16-.55-.67-.53-1.73.05-2.38.57-.64,1.63-.79,2.36-.32-.39-.48-.35-1.27.1-1.7.19-.19.43-.31.57-.53.68-1.08-1.73-1.88-1.66-3.15.01-.27.15-.53.19-.8.06-.4-.09-.79-.25-1.17-.09-.21-.18-.41-.28-.61l3.81-3.81c7.19,6.97,16.03,11.64,25.63,13.62.12.11.23.23.32.38.18.29.54.73.65.86,1.65,1.94,3.48,3.98,5.97,4.55.96.22,1.96.2,2.93.29v9.76ZM111.9,147.26c-.7.59-1.4,1.17-2.1,1.76-7.97-.68-15.18-4.1-20.65-9.33l10.43-10.43c3.27,3.01,7.58,4.92,12.33,5.11v12.88ZM111.9,131.18c-.09.18-.13.39-.1.6.02.13.04.23.1.33v.64c-4.29-.19-8.2-1.92-11.17-4.64l4.61-4.61c.88.27,1.88.22,2.64-.3.44-.3.8-.74,1.32-.86.34-.07.68.01,1.02.09.55.14,1.14.3,1.6.61v8.12ZM111.9,100.92c-2.16.03-4.31.3-6.41.82-.15.04-.31.09-.39.22-.1.18.02.4.04.6.04.44-.4.78-.81.94-.41.16-.89.28-1.15.63-.02.03-.04.06-.05.09l-2.4-2.4c2.98-2.72,6.88-4.44,11.17-4.64v3.73ZM111.9,95.56c-4.74.2-9.05,2.1-12.33,5.11l-10.43-10.43c5.02-4.79,11.49-8.07,18.68-9.1,0,.05,0,.1,0,.15-.05.46-.34.87-.33,1.33,1.07.26,2.15-.3,3.16-.76.41-.18.83-.35,1.25-.5v14.18ZM111.9,67.22c-.12.13-.2.27-.21.44,0,.02,0,.05.01.07.01.02.04.04.06.05.05.02.09.04.14.05v3.63c-.09.05-.18.1-.28.14-.18.07-.38.14-.46.31-.04.07-.04.16-.06.24-.12.64-.82,1.02-1.46,1.12-.65.1-1.32,0-1.96.15-1.21.27-2.14,1.46-2.13,2.7.01,1.3.92,2.38,1.65,3.48-7.38,1.15-14.03,4.56-19.2,9.5l-10.44-10.44c4.96-4.8,10.72-8.48,16.99-10.89.52.1,1.04.11,1.51-.11.26-.13.47-.37.59-.64,3.75-1.25,7.67-2.06,11.68-2.41.1.18.25.34.41.48.05.05.11.09.17.11.2.06.39-.16.41-.37.01-.08,0-.19-.02-.3.38-.02.75-.05,1.13-.06.13.17.28.32.46.43.22.13.51.18.75.09.1-.04.19-.11.26-.2v2.42ZM111.9,53.01c-.34-.11-.69-.2-1-.36-.2-.1-.39-.24-.56-.39-.04-.04-.08-.08-.09-.13-.02-.12.11-.19.22-.25.27-.15.47-.43.53-.74.02-.1.02-.21,0-.3-.03-.11-.1-.2-.18-.28-.24-.23-.57-.35-.9-.4-.49-.07-1,.02-1.41.28-.41.26-.71.72-.74,1.21-.02.37.11.74.31,1.05.17.26.38.49.6.71.18.18.43.49.67.57.25.08.47-.2.68-.29.25-.11.53-.16.81-.15.38.02.75.15,1.08.35v1.19c-.18-.11-.34-.26-.51-.39-.2-.14-.45-.25-.68-.17-.06.02-.11.05-.14.09-.06.07-.07.17-.06.26.01.46.27.88.53,1.26.26.39.54.78.87,1.11v3.54s-.08-.02-.12-.04c-.34-.11-.67-.23-1.02-.25s-.73.09-.94.37c-.19.27-.2.62-.33.93-.02.04-.04.08-.08.11-.05.03-.11.02-.16,0-.26-.05-.54-.08-.79,0-.26.07-.49.29-.51.56-.01.19.09.37.16.55-.65.06-1.3.12-1.94.2,0-.29.08-.57.27-.77.18-.18.45-.29.53-.53.08-.22-.01-.52.17-.67.15-.13.44-.11.48-.3.02-.08-.03-.16-.08-.23-.17-.25-.38-.48-.49-.76-.05-.11-.08-.24-.09-.36.01-.02.02-.03.03-.05.14-.19.27-.37.41-.56.16-.22.33-.52.2-.76,0,0-.01-.02-.02-.03-.05-.13-.13-.24-.24-.32-.07-.05-.15-.09-.23-.12-.13-.09-.27-.17-.42-.21-.32-.09-.65,0-.97.13-.4.04-.8.13-1.18.27-.17.06-.35.14-.5.25-.19.14-.32.34-.46.53-.47.27-.93.56-1.35.89-.01,0-.02.02-.03.03-.11.03-.22.05-.33.09-.33.12-.61.36-.78.66-.06.1-.1.21-.15.31-.24.18-.49.35-.76.48-.25.12-.52.21-.78.3-.33.04-.66.1-.93.29-.09.06-.17.13-.22.21-.04.03-.08.05-.11.07-.15.11-.28.24-.36.41-.09.18-.1.39-.08.59.04.39.2.77.47,1.06.22.24.5.4.8.51-.93.25-1.85.53-2.76.83-1.52-2.22-3.94-3.81-6.59-4.29-.78-.14-1.99-.42-1.85-1.2.27-1.47,2.61-1.84,3.79-.93.36.28.67.67,1.12.72.25.03.49-.05.73-.13,1.01-.35,2.02-.81,2.73-1.61.71-.8,1.03-2.02.53-2.96-.72-1.34-2.56-1.46-4.08-1.41.02-1.6,1.77-2.93,3.32-2.53-.11.37-.21.75-.32,1.12.41.5,1.25.56,1.72.12.47-.44.46-1.29-.01-1.72,1.98-.27,3.88-.98,5.68-1.87,2.94-.43,5.93-.66,8.95-.69v4.95ZM111.9,46.43c-1.79.02-3.56.11-5.32.26,1.46-.92,2.88-1.92,4.23-3-.03-.91-.06-1.83-.09-2.74-.88.01-1.75-.27-2.46-.79,1.05-.57,2.23-.91,3.42-.97-1.18-.47-2.43-.76-3.69-.85,1.29-.43,2.59-.8,3.91-1.13v9.22ZM188.62,82.9c4.19,9.91,6.36,20.42,6.47,31.25h-13.83c-.21-17.74-7.1-34.39-19.5-47.08l9.78-9.78c7.29,7.44,13.04,16.04,17.09,25.6ZM150.93,168.92l-.43-.13c-.26-.08-.35-.4-.17-.61,1.02-1.14,2.27-2.07,3.66-2.7.81-.37,1.78-.64,2.57-.23.06.03.12.08.18.12-2.05,1.8-4.2,3.46-6.43,4.98.28-.29.54-.6.78-.93.13-.18.05-.44-.17-.5ZM148.35,165.14c-4.57,1.74-9.85,1.26-14.46,2.64,0-.02,0-.03,0-.05-.02-.43-.08-.87,0-1.3.12-.63.54-1.15.9-1.68.58-.86,1.03-1.94.95-2.94,4.83-2.38,9.31-5.53,13.28-9.38l7.51,7.51c-2.59,1.96-5.15,4.03-8.18,5.19ZM121.66,122.12c-.05-.16-.15-.3-.15-.47,0-.2.12-.38.24-.55,1.05-1.53,1.19-3.61.47-5.32h8.27c-.19,4.29-1.92,8.2-4.64,11.17l-4.19-4.19c.07-.21.08-.43,0-.65ZM125.85,102.98c2.72,2.98,4.44,6.88,4.64,11.17h-9.35c-.6-.61-1.32-1.1-1.88-1.75-.46-.54-.79-1.18-.96-1.86l7.55-7.55ZM118.28,108.25c.04-.12.09-.23.18-.31.07-.07.16-.11.26-.14l-.44.44ZM134.01,96.69c.6.15,1.14.49,1.73.68.74.24,1.54.24,2.31.15.3-.03.66-.12.77-.4.09-.23-.04-.5-.23-.66s-.43-.25-.64-.36-.43-.28-.5-.52c-.1-.34.14-.68.33-.98.23-.37.42-.77.55-1.18.09-.29.16-.6.13-.89,5.08,5.82,8.23,13.37,8.42,21.63h-14.75c-.2-4.74-2.1-9.05-5.11-12.33l4.67-4.67s.05,0,.07,0c.29.03.58.14.87,0,.2-.1.33-.3.52-.41.26-.16.58-.14.87-.06ZM133.24,95.59l3.55-3.55c-.17.26-.25.56-.33.86-.24.88-.48,1.77-.71,2.65-.01.04-.03.09-.06.12-.04.03-.08.03-.13.04-.77.05-1.55,0-2.31-.12ZM137.15,91.68l.28-.28c.05.05.09.1.14.15-.15,0-.29.05-.42.13ZM132.12,115.79h14.75c-.21,8.81-3.76,16.8-9.44,22.75l-10.43-10.43c3.01-3.27,4.92-7.58,5.11-12.33ZM147.87,151.28c-3.82,3.71-8.13,6.74-12.78,9.04-1-1.06-2.8-1.12-4.25-1.61-1.41-.48-2.62-1.48-4.08-1.8-1.37-.31-3.02-.07-3.95-1.11-.71-.8-.65-1.99-.55-3.05.1-1.11.21-2.23.31-3.35,0,0,0,0,0-.01,5.64-1.62,10.72-4.59,14.85-8.54l10.44,10.44ZM149.02,150.13l-10.44-10.44c5.97-6.25,9.71-14.65,9.92-23.91h14.75c-.2,12.93-5.23,25.06-14.23,34.35ZM148.5,114.16c-.21-9.26-3.95-17.66-9.92-23.91l10.44-10.44c9,9.28,14.02,21.42,14.23,34.35h-14.75ZM150.18,78.66l10.43-10.43c12.09,12.38,18.82,28.63,19.02,45.93h-14.75c-.2-13.36-5.4-25.91-14.7-35.5ZM113.53,36.84c.22-.05.43-.09.65-.13-.07.46-.13.93-.2,1.4.65.32,1.3.64,1.96.97-.79.29-.74,1.56-.06,2.06.68.5,1.63.4,2.44.17.81-.23,1.62-.58,2.46-.53-.77-.71-1.53-1.43-2.3-2.15-.18-.16-.27-.4-.23-.64.06-.35.38-.42.66-.47,4.06-.72,8.18-1.13,12.3-1.22,1.39-.03,2.85-.04,4.11-.57.88.25,1.75.51,2.62.79-.06.12-.11.25-.14.38-.25,1,1.13,1.94,1.96,1.34-.4-.26-.56-.8-.44-1.26.22.08.45.15.67.23,1.04,1.13,2.57,1.81,4.1,1.78-.22-.13-.43-.29-.61-.46.44.18.87.36,1.31.54,9.56,4.04,18.17,9.79,25.6,17.09l-9.78,9.78c-12.69-12.4-29.34-19.3-47.08-19.5v-9.59ZM113.53,61.4c.17-.04.36-.06.46-.19.11-.15.03-.37-.13-.47-.1-.06-.22-.08-.33-.07v-2.62c.08.02.16.04.24.06.17.04.33.08.5.06.37-.04.66-.35.77-.7.11-.35.07-.73-.02-1.09-.23-.94-.77-1.8-1.5-2.44v-5.89c17.3.21,33.55,6.93,45.93,19.02l-10.43,10.43c-6.48-6.29-14.32-10.7-22.84-12.96-.05-.04-.09-.07-.14-.12-.23-.22-.41-.51-.7-.64-.41-.18-.88,0-1.32.05-.72.08-1.45-.24-1.95-.76-.15-.15-.27-.32-.43-.46-.54-.48-1.33-.54-2.06-.57-.19,0-.42,0-.53.16-.11.17-.02.39.08.55.1.16.21.31.32.45-1.95-.25-3.93-.39-5.92-.42v-1.4ZM113.53,67.25c.22-.14.43-.29.61-.46.17-.17.23-.34.14-.57-.16-.41-.44-.16-.73-.02,0,0-.01,0-.01,0v-1.76c3.08.05,6.12.37,9.09.95.3.16.68.21,1.01.31.44.13.92.5.83.96-.01.08-.05.16-.11.21-.06.05-.14.07-.22.07-.25,0-.49-.12-.73-.15-.25-.04-.57.08-.58.33-.01.14.08.27.18.37.84.79,2.34.19,3.29.84.28.19.48.47.78.63.19.11.41.15.62.2.71.14,1.39.21,2.11.21.83,0,1.27.25,1.67.96.5.88,1.18,1.66,1.99,2.28.24.18.59.34.8.13-.36-.77-1.17-1.27-1.5-2.06-.18-.42-.22-.92-.53-1.25-.11-.12-.25-.22-.3-.37-.03-.11-.02-.23-.02-.34-.01-.24-.14-.45-.28-.64,1.13.46,2.25.95,3.34,1.49,0,0-.02,0-.03,0-.22-.04-.44-.09-.65-.15-.15-.04-.41-.21-.56-.17-.38.1-.05.74.1.89.14.15.32.25.51.34.31.15.65.27.98.21.33-.06.62-.28.96-.3.12,0,.25.01.36.04,4.07,2.19,7.85,4.95,11.25,8.25l-6.85,6.85s0-.01,0-.02c-.03-.08-.08-.14-.13-.2-.27-.3-.59-.57-.93-.79-.08-.05-.16-.1-.2-.17-.09-.14-.05-.32-.08-.48-.06-.35-.43-.54-.75-.68-.05-.02-.11-.05-.16-.05-.11,0-.2.1-.23.21-.03.11,0,.22.04.33.09.24.25.46.4.67.11.15.97,1.4,1.52,1.72l-3.06,3.06c-2.13-2.04-4.52-3.82-7.11-5.29.21-.31.37-.66.53-1,.25-.55.52-1.13.46-1.74-.08-.83-.73-1.48-1.25-2.14-.99-1.27-1.58-2.84-1.65-4.45-.02-.47,0-.96-.15-1.4-.12-.35-.34-.67-.47-1.02-.27-.75-.09-1.59-.3-2.36-.41.61-.69,1.31-1.09,1.93-.39.62-.94,1.2-1.65,1.41-.71.2-1.6-.09-1.86-.78-.1-.27-.12-.6-.35-.77-.2-.15-.51-.14-.67-.34-.27-.33.18-.77.58-.94.63-.26,1.09-.92.13-.87-.62.03-1.23-.15-1.81-.37-.61-.22-1.2-.5-1.83-.68-.19-.06-1.71-.39-1.77-.11-.05.24.34.28.5.46.22.25-.07.62-.33.82-.42.32-.93.65-1.44.51-.26-.07-.48-.26-.74-.36-.55-.21-1.15.03-1.64.39v-2.76ZM113.53,80.91c.13-.03.26-.06.39-.09,1.48.05,2.93.2,4.36.43.4.35.68.82.72,1.35.6.02,1.2-.03,1.79-.15-.55.46-.26,1.36.13,1.95.35.53.78,1.03,1.31,1.37.44.28.93.46,1.43.62,1.24.41,2.72.74,3.77-.04.49-.36.81-.93,1.3-1.29.08-.06.16-.11.25-.16,2.67,1.45,5.13,3.25,7.32,5.33l-5.14,5.14c-.36.08-.7.23-1.01.43-.06.04-.13.09-.17.15-.04.07-.05.16-.04.24.01.1.05.2.11.28l-4.19,4.19c-3.27-3.01-7.58-4.92-12.33-5.11v-14.65ZM113.53,97.2c4.29.19,8.2,1.92,11.17,4.64l-3.85,3.85c-.34-.69-.9-1.31-1.44-1.87-.79-.83-1.61-1.69-2.65-2.19-1-.49-2.13-.62-3.24-.67v-3.75ZM113.53,131.25c.35-.22.71-.44.97-.73.33-.37.48-.86.69-1.3.45-.93,1.2-1.77,1.22-2.79,0-.42-.11-.84,0-1.24.19-.75,1.03-1.13,1.8-1.2.74-.07,1.51.04,2.22-.15l4.28,4.28c-2.98,2.72-6.88,4.44-11.17,4.64v-1.5ZM113.53,134.38c4.74-.2,9.05-2.1,12.33-5.11l10.43,10.43c-3.81,3.63-8.46,6.4-13.62,7.97,0-.01,0-.02,0-.03-.05-1.07-.37-2.11-.53-3.17-.23-1.58-.09-3.19-.28-4.77-.19-1.58-.78-3.23-2.09-4.13-.66-.46-1.45-.68-2.24-.81-.31-.05-.64-.1-.96-.05-.23.04-.81.15-.89.21,1.24.33,2.01,1.87,1.51,3.05-.28.67-.81,1.55-.21,1.95.26.18.72.43.47.62-.74.84-.86,2.17-.29,3.13-.42-.3-.98.03-1.38.35-.76.62-1.51,1.24-2.26,1.87,0,0,0,0,0,0v-11.52ZM113.53,172.46c2.11.74,3.89,2.72,6.11,2.47,1.18-.13,2.2-.9,3.37-1.12,1.47-.29,2.96.31,4.46.36,2.71.1,5.26-1.88,6.12-4.41.69-.12,1.4-.34,2.04-.57,1.61-.58,3.78-.9,4.69.54.19.29.3.64.54.89.71.73,1.95.17,2.72-.5.66-.57,1.46-1.25,2.28-1.2.21.01.35.22.28.42-.38,1.09-.81,2.16-1.29,3.21-.09.2.07.41.28.39.63-.07,1.25-.22,1.84-.43-.82.49-1.66.97-2.5,1.42,0-.11-.06-.22-.16-.28-.11-.06-.25-.07-.37-.04-.36.07-.64.32-.96.49-.44.24-.97.34-1.35.67-.22.18-.38.42-.63.55-.45.23-.99.03-1.49.1-.52.08-.99.47-1.51.44-.24-.01-.48-.12-.72-.08-.33.05-.56.35-.88.47-.25.1-.54.07-.81.09-.61.04-1.18.31-1.73.57-.18.09-.52.24-.56.47-.05.27.28.26.49.27.43.01.89.02,1.27-.17.21-.11.38-.27.6-.36.3-.12.63-.07.94-.11.24-.03.48-.1.72-.14.33-.05.66-.04.99-.02-7.76,3.21-16.14,4.94-24.78,5.04v-9.42ZM141.55,181.6c-1.25.97-2.5,1.94-3.75,2.9-.29.22-.58.46-.71.79-.16.41-.03.87-.03,1.31.02,1.84-2.02,3.02-3.84,3.29-1.82.28-3.8.11-5.38,1.05,1.37-.03,2.74.07,4.1.3-.93,1.74-3.14,2.67-5.03,2.11l-7.74,2.09c.39.91,1.73.59,2.66.26.92-.33,2.4-.05,2.25.88-2.4.33-4.83.56-7.27.67.01,0,.03,0,.04,0l-3.32-.39v-13.34c9.56-.11,18.81-2.16,27.29-5.98.11.57.74.8,1.16,1.18.85.77.61,2.39-.42,2.89ZM156.61,170.34c-2.58,2.13-5.24,4.16-7.98,6.09-1.14.8-2.52,1.63-3.86,1.21-.7-.22-1.27-.76-1.94-1.05,5.06-2.48,9.83-5.6,14.2-9.31,0,.09.08.18.18.21l.7.14c.17.03.28.18.28.35-.01.94-.83,1.74-1.58,2.36ZM164.35,156.76c-.76.07-1.52.08-2.27.22-1.54.28-2.92,1.08-4.22,1.99l-7.69-7.69c9.3-9.59,14.5-22.14,14.7-35.5h14.75c-.18,15.05-5.29,29.3-14.58,40.9-.23.03-.47.06-.7.08ZM171.86,154.15c-1.34.87-2.8,1.55-4.33,2,.33-.43.64-.87.96-1.3.67-.3,1.35-.7,1.83-.83.41-.11.87-.19,1.36-.31.26-.06.42.29.19.44ZM187.77,144.65c-.58-.04-1.09-.36-1.64-.53-1.32-.4-2.77.12-3.89.94-1.12.82-1.99,1.91-3,2.87-1.27,1.21-2.75,2.04-4.1,2.84-.93.55-1.89.31-2.89.73-.87.37-1.63.79-2.28,1.22,7.2-10.88,11.14-23.6,11.29-36.92h13.83c-.09,9.4-1.74,18.56-4.91,27.29-.72.85-1.48,1.64-2.41,1.57Z"/>
</svg>