<?xml version="1.0" encoding="UTF-8"?>
<svg id="Capa_2" data-name="Capa 2" xmlns="http://www.w3.org/2000/svg" viewBox="0 0 534.25 78.67">
  <g id="Capa_1-2" data-name="Capa 1">
    <g>
      <path d="M374.09,54.18c-.36,2.8-1.19,5.17-2.47,7.1-1.29,1.93-2.92,3.41-4.87,4.43-1.96,1.02-4.11,1.54-6.47,1.54-3.48,0-6.07-1.08-7.78-3.25s-2.31-5.16-1.82-8.99l4.42-34.33h-13.47l-4.69,36.43c-.59,4.58-.28,8.48.93,11.71,1.21,3.23,3.17,5.68,5.89,7.35,2.72,1.68,6.06,2.51,10.03,2.51,4.3,0,7.97-.95,10.99-2.84,3.03-1.9,6.15-5.05,7.86-8.26l-.09.6-1.26,9.78h13.22l7.37-57.28h-13.47l-4.31,33.5Z" fill="#111216"/>
      <polygon points="54.73 .95 50.76 31.8 19.92 31.86 23.89 1.01 9.79 1.01 0 77.13 14.1 77.13 18.23 45.01 49.07 44.95 44.94 77.07 59.04 77.07 68.83 .95 54.73 .95" fill="#111216"/>
      <path d="M98.81,19.61c-15.79,0-28.93,12.3-31.07,28.94-2.26,17.6,7.33,29.58,23.86,29.58,13.57,0,24.15-7.21,29.04-21.31h-12.73c-2.35,5.94-7.1,9.01-14.31,9.01-6.25,0-10.13-2.86-11.75-7.53-.54-1.59-.81-3.6-.81-6.04h40.19c.44-1.8.77-3.5.97-5.09.72-5.62.11-12.41-3.9-18.34-4.02-5.83-10.69-9.22-19.49-9.22ZM82.54,43.04c.54-1.69,1.15-3.18,1.85-4.45,3.08-4.98,7.07-7.95,13-7.95,7.95,0,11.99,5.72,11.55,12.4h-26.4Z" fill="#111216"/>
      <path d="M176.43,28.83c-4.02-5.83-10.69-9.22-19.49-9.22-15.79,0-28.93,12.3-31.07,28.94-2.26,17.6,7.33,29.58,23.86,29.58,13.57,0,24.15-7.21,29.04-21.31h-12.73c-2.35,5.94-7.1,9.01-14.31,9.01-6.25,0-10.13-2.86-11.75-7.53-.54-1.59-.81-3.6-.81-6.04h40.19c.44-1.8.77-3.5.97-5.09.72-5.62.11-12.41-3.9-18.34ZM140.67,43.04c.54-1.69,1.15-3.18,1.85-4.45,3.08-4.98,7.07-7.95,13-7.95,7.95,0,11.99,5.72,11.55,12.4h-26.4Z" fill="#111216"/>
      <polygon points="186.25 32.65 215.72 32.65 181.8 65.63 180.33 77.07 227.5 77.07 229.06 64.99 198.31 64.99 232.31 32.34 233.81 20.67 187.79 20.67 186.25 32.65" fill="#111216"/>
      <path d="M272.65,0h-.53c-5.19,0-10.09.95-14.57,2.86-9.08,3.82-14.99,11.03-16.12,19.83-.82,6.36.92,11.03,4.31,14.31,3.28,3.39,7.89,5.41,14.51,6.68l11.8,2.23c7.54,1.59,11.04,4.03,10.33,9.54-.87,6.79-7.46,10.18-17.21,10.18-10.29,0-15.52-3.81-15.01-11.87h-14.21c-.37,4.56.47,8.69,2.44,12.4,4,7.63,12.98,11.98,25.39,11.98,18.76,0,31.31-10.18,33.1-24.06,1.46-11.35-5.41-17.28-18.23-19.83l-12.31-2.44c-7.02-1.49-11.99-3.18-11.16-9.65.78-6.04,6.6-10.07,15.93-10.07,9.97,0,14.59,4.45,14.06,11.87h14.42c.27-4.56-.47-8.69-2.33-12.4-3.74-7.21-10.92-11.55-24.59-11.55Z" fill="#111216"/>
      <path d="M442.14.95l-3.71,28.84c-1.27-3.28-3.28-5.83-5.91-7.63-2.75-1.69-5.82-2.54-9.21-2.54-15.06,0-26.6,12.3-28.78,29.26-2.16,16.75,6.31,29.26,21.15,29.26,7.1,0,12.52-2.55,16.25-7.63.52-.74,1.05-1.59,1.58-2.44l-1.16,9.01h13.68L455.82.95h-13.68ZM435.71,50.99c-.57,2.76-1.5,5.09-2.81,7-3.16,4.77-7.29,7.21-12.7,7.21-8.37,0-13.19-6.25-11.84-16.75,1.46-11.34,7.82-17.07,16.19-17.07,5.41,0,9.29,2.76,10.88,7.74.7,2.02,1.03,4.35.89,7.1l-.61,4.77Z" fill="#111216"/>
      <path d="M509.53,19.61c-16.11,0-29.71,12.62-31.86,29.26-2.13,16.54,8.22,29.26,24.33,29.26s29.84-12.72,31.97-29.26c2.14-16.64-8.32-29.26-24.44-29.26ZM520.29,48.87c-1.41,10.92-8.6,17.39-16.76,17.39s-13.69-6.47-12.28-17.39c1.4-10.92,8.81-17.39,16.76-17.39s13.69,6.47,12.29,17.39Z" fill="#111216"/>
      <polygon points="454.63 77.07 468.2 77.07 475.45 20.67 461.88 20.67 454.63 77.07" fill="#111216"/>
      <polygon points="464.42 .95 462.67 14.52 476.24 14.52 477.99 .95 464.42 .95" fill="#111216"/>
      <path d="M322.6.79h-13.55l-2.56,19.93c-.96,7.48,4.32,13.55,11.81,13.55h-13.55l-3.76,29.26c-.96,7.48,4.32,13.55,11.81,13.55h15.29l1.74-13.55h-15.29l3.76-29.26h15.29l1.74-13.55h-15.29l2.56-19.93Z" fill="#111216"/>
      <polygon points="521.26 15.59 522.97 15.59 522.97 9.33 525.2 9.33 525.2 7.74 519.03 7.74 519.03 9.33 521.26 9.33 521.26 15.59" fill="#111216"/>
      <polygon points="532.56 7.74 530.22 13.59 527.88 7.74 526.22 7.74 526.22 15.59 527.88 15.59 527.88 11.57 529.43 15.59 531 15.59 532.58 11.51 532.58 15.59 534.25 15.59 534.25 7.74 532.56 7.74" fill="#111216"/>
    </g>
  </g>
</svg>