<?xml version="1.0" encoding="UTF-8"?>
<svg xmlns="http://www.w3.org/2000/svg" viewBox="0 0 239.21 272.86">
  <g isolation="isolate">
    <g id="Capa_2" data-name="Capa 2">
      <g id="Capa_1-2" data-name="Capa 1">
        <g>
          <g>
            <path d="M42.8,84.14c.1-.64.35-1.26.74-1.78.44-.6,1.11-1.02,1.83-1.17s1.51-.03,2.15.35c-.14-.08-.97.48-1.1.57-.37.22-.74.45-1.05.74-1.66,1.56-2.34,2.71-2.49,2.99-.18-.44-.15-1.22-.08-1.68Z" fill="#0a0807"/>
            <path d="M89.44,91.55c.56.33,1.05.78,1.4,1.34.4.63.55,1.4.43,2.13s-.52,1.41-1.1,1.88c0-.23-.1-1.08-.13-1.23-.07-.42-.15-.85-.31-1.24-.85-2.11-1.68-3.16-1.88-3.4.47-.01,1.19.3,1.6.54Z" fill="#0a0807"/>
            <path d="M55.74,146c.08-.49.21-1.23.71-2.01.43-.67.95-1.11,1.36-1.38.1.27.19.55.29.82-.33.31-.81.86-1.14,1.67-.21.54-.27.97-.31,1.35-.16,1.31.11,2.41.32,3.27.07.26.13.48.17.62-.1.07-.61.42-.85.25-.05-.04-.08-.09-.19-.43-.09-.29-.14-.43-.17-.56-.28-1.16-.28-2.31-.28-2.31,0-.43,0-.79.08-1.29Z" fill="#161817"/>
            <path d="M50.95,135.85c-.02-.31-.03-.62.06-.91.11,1.68,1.02,3.22,1.23,4.89.03.25-.04.71-.4.58-.31-.11-.16.66-.23.39-.2-.77-.51-2.79-.57-3.58-.04-.46-.06-.91-.08-1.37Z" fill="#060706"/>
            <path d="M61.84,138.06c.7-.93,1.52-1.78,2.36-2.58-.41,1.39-.82,2.79-1.55,4.04-.18.32-.39.63-.66.86-.26.22-.58.36-.9.47-.13.04-.78.29-.85.1-.04-.1.13-.37.17-.46.07-.16.14-.33.22-.49.16-.33.34-.65.53-.95.21-.34.43-.66.67-.98Z" fill="#060706"/>
            <path d="M54.14,104.46c.08-.11.17-.21.29-.27s.27-.09.38-.02c.2.1.23.37.24.59,0,.26.02.52-.04.77s-.18.49-.39.64c-.12.08-.25.13-.37.21-.32.21-.47.59-.61.94-.05-.49-.19-1.05-.1-1.53s.3-.93.59-1.32Z" fill="#fbf6f5"/>
            <path d="M72.85,108.22c-.03-.13-.08-.26-.16-.36-.08-.1-.21-.18-.35-.17-.22.02-.36.25-.45.46-.13.29-.99,3.79-1.76,5.71.24-.23.12-.12.33-.31.9-.86,1.66-1.9,2.17-3.03.09-.21.15-.41.19-.62.03-.08.06-.15.07-.23.1-.48.08-.98-.04-1.45Z" fill="#fbf6f5"/>
            <path d="M31.32,132.06l-1.68-2.86c5.35,5.07,11.65,9.13,18.47,11.93l-.34-.71c2.32,2.05,4.98,3.71,7.83,4.91l-.99-3.53c.35.41.72.84,1.2,1.1s1.11.32,1.55,0c.77-.55.54-1.73.22-2.63-2.03.22-4.14-.48-5.63-1.87.05.84.11,1.67.16,2.51-3.12-1.61-5.91-3.86-8.16-6.56l.69,3.1c-2.87-2.15-6.16-3.66-9.1-5.71-3.35-2.33-6.21-5.36-8.35-8.83.03,1.28.06,2.55.09,3.83-1.02-.65-2.04-1.29-3.05-1.94.23.85.4,1.75.7,2.59.23.66.84.94,1.4,1.31l5,3.36Z" fill="#060706" mix-blend-mode="multiply" opacity=".2"/>
            <path d="M98.98,128.48l.79-1.53c-2.24,2.88-5.22,5.18-8.56,6.63l.34-.68-9.33,6.34.81-2.78c-3.89,5.03-10.62,7.7-16.9,6.7l.93-1.28c-1.67,1.25-4,1.56-5.94.79-.62-.25-1.24-.63-1.54-1.23s-.16-1.45.43-1.76,1.48.28,1.28.92c2.93-.85,5.87-1.7,8.8-2.56-.03.33-.06.66-.09.98,6.07-.52,11.89-3.53,15.82-8.19l-.64,3.57c3.44-1.68,6.48-4.18,8.78-7.24v1.92c3.01-2.92,6-5.85,9-8.77l-.33,3c3.45-2.41,6.37-5.57,8.5-9.21-.19.33.02,1.53-.03,1.96-.07.69-.22,1.38-.42,2.04-.37,1.22-1.01,2.32-1.63,3.42-1.19,2.06-3.91,3.76-5.91,4.95-1.32.79-2.71,1.46-4.15,2Z" fill="#060706" mix-blend-mode="multiply" opacity=".2"/>
            <path d="M124.31,114.84c-1.1-1.7-2.63-3.12-4.41-4.08,1.05,5.42.32,11.17-2.05,16.15l-1.37-3.04c-.6,5.26-2.1,10.42-4.43,15.18l-.64-4.01c.57,2.87-3.17,10.56-7.19,12.43,2.67-7.14,6.05-21.44,5.84-27.81-.06-1.74.25.09.83-1.54.51-1.43,1.62-2.54,2.59-3.7,2.75-3.31,4.49-7.44,4.95-11.71.82,1.04,1.65,2.09,2.47,3.13.54-1.96,1.08-3.91,1.62-5.87.05-.19,1.04.37,1.13.45.26.27.24.42.29.77.12,1.01.29,2.03.41,3.05.27,2.25.36,4.52.27,6.79-.05,1.28-.16,2.56-.32,3.82Z" fill="#060706"/>
            <g id="Objeto_generativo" data-name="Objeto generativo">
              <g>
                <path d="M110.25,228.2c-.23.74-.5,1.46-1.07,1.92-.24.13-.49-.45-.66-.75l.41,7.69c.02.33-.13.94-.44,1.01-.85-.23-1.47-.84-2.2-1.44l-.27,5.61c-.1,2.11-.54,4.13-1.24,6.12l-.68.3-.66,9.76c-.18,2.7-.73,5.24-1.79,7.7-.8,1.85-2.03,3.37-3.77,4.35-1.51.85-3.24,1.29-4.94.94-.67-.14-1.16-.14-1.79.15-1.55.71-3.19,1.11-4.88,1.24-1.48.12-2.74-.24-4.12-.62l-2.99-.06c-1.9-.14-3.56-1.02-4.75-2.53-2.29-.37-3.79-2.1-4.12-4.47-.44-4.29,1.11-8.66,4.14-11.76,1.5-1.54,3.25-1.62,4.32-3.68.79-1.51,1.52-2.99,1.74-4.74l2.05-16.62c.55-7.46.49-14.78-.36-22.24-1.79-.43-3.45-.93-5.16-1.85l1.35,3.18c-.6.14-1.1.16-1.62.06-4.04-.75-6.32-1.57-9.6-4.35.14,1.08.43,1.96.16,2.95-.94-.29-1.71-.73-2.57-1.24l-2.22,9.96c-.53,2.38-1.04,4.63-1.19,7.06l-.33,1.96c-.62-.32-1.06-.68-1.51-1.26l-.7,4.59-.47,5.84c-.17,2.07-.17,4.05-.55,6.08-.56,3.01-1.63,5.82-3.49,8.25-.18.24-.55.08-.77-.27l-2.27,7.44c-.61,1.98-1.74,3.73-3.23,5.19-2.52,2.46-7.64,4.08-11.05,3.23-.63-.16-1.28-.3-1.93-.12-1.75.5-3.51.37-5.28.32-1.58-.05-2.73-1.13-4.12-1.4-3.19-.62-5.64-2.64-5.75-6.17-.1-3.21,1.09-6.52,3.11-9.11,1.52-1.94,3.53-3.17,5.9-3.73,1.62-.39,2.95-1.23,3.85-2.65,1.52-2.39,2.39-5.02,2.78-7.88.71-5.19,1.03-10.29,1.14-15.56.17-8.03-1.37-20.28-3.42-28.03l-2.92-11.05c-.37-.62-1.08-1.08-1.59-1.55-7.96-7.38-9.01-16.81-9.01-16.81-.05-.04-.17.03-.2.15l-1.04,5.26c-.02.11-.12.28-.18.37s-.23-.03-.35-.16c-3.69-4.05-5.26-13.11-4.2-18.44l.63-3.18c.14-.23-.19-.31-.16-.02-.74.84-1.18,1.76-1.75,2.67l-.97,1.56c-.76-.81-.9-1.83-1.03-2.94-.73-6.01.56-11.88,3.81-16.98l.18-.31c.1-.18.07-.3-.2-.26-2.13.14-5.78-1.92-5.68-2.68.02-.16,2.07-.23,3.88-2.16,1.29-1.38,2.33-2.89,3.28-4.63-1.87-.1-3.87-.66-5.14-2.31,2.26-.73,4.05-1.87,5.47-3.71-1.65-3.88-2.17-8.15-1.18-12.32.19-.15.07-.4-.05-.31-1.3,1.32-2.1,2.79-2.98,4.39-.58-.28-.8-.84-.97-1.41-1.69-6.01-.46-13.05,2.6-18.53.24-.1.11-.36-.05-.22-1.97,1.07-3.64,2.34-5.28,3.78-.69.61-.83-.81-.6-2.55.83-6.27,4.9-12,10.45-15.21l-2.6-1.24c-.12-.06-.21-.19-.23-.28-.03-.19.11-.24.29-.32l2.86-1.39c.17-.04.12-.19.04-.19h-.37c-3.31-.32-6.36-2.19-5.34-2.74l1.36-.75c3.64-1.99,3.54-4.85,6.26-7.73-2.01.19-3.78.89-5.59,1.63-.16.07-.36-.04-.41-.13-.06-.09-.12-.29-.09-.49.6-3.88,2.87-7.17,6.17-9.49-1.85-.56-3.72-.57-5.61-.34-.28.04-.58.11-.68-.22-.02-.07-.06-.24-.03-.33,1.23-2.21,3.18-3.96,5.54-4.86.1-.04.2-.1.19-.15-.01-.05-.12-.06-.2-.12-1.37-.93-2.8-1.59-4.37-2.09-1.48-.46,2.96-3.05,5.37-3.39-.91-1.35-1.57-2.78-1.96-4.47.55-.49,1.37-.25,2.23-.08l-.82-2.15c0-.17-.55-.34.1-.41l.16.21c-3.4,3.65-9.86,8.31-14.87,8.06-2.28-.11-4.05-1.45-4.73-3.57C.12,30.31-.07,28.57.02,26.73c.22-4.41,1.46-10.74,3.18-14.79.73-1.72,2.2-2.75,4.14-2.78,4.22-.05,8.17-1.29,11.62-3.72S25.56,1.26,30.03.96c3.28-.22,6.43.22,9.55,1.19l2.72,1.03c.08.03.16.11.28.11.09,0,.11-.14,0-.17-.07-.02-.13-.12-.19-.17l-1.63-1.54c-.41-.39-.78-.8-.96-1.38,1.64-.1,3.13.09,4.62.57,1.38.44,2.73.86,3.98,1.58,4.22,2.46,7.49,6.24,9.42,10.74l.08.26s.09.13.14.14.03-1.07.5-.88c1.25.5,2.24,1.35,3.18,2.26l1.53,1.84c0,.27.34.32.27.02v-2.92s-.3-3.01-.3-3.01c-.02-.16.06-.33.14-.37.08-.04.27-.07.39,0,2.09,1.39,3.63,3.44,4.34,5.86l.67,3.63c2.69-1.58,6.35-2.09,9.16-.98.14.06.16.23.13.32s-.13.16-.24.25l-3.45,2.71c4.49-.75,10.43.85,14.02,3.88.08.07.12.2.1.26-.01.06-.07.15-.2.17l-.94.14c-.37.09-.11.37.16.29,2.5.54,4.65,1.7,7.05,2.38,2.89-.07,5.74-2.96,7.42-5.36l1.85-2.66c.15-.21.58-.54.83-.34.39,1.35.02,3.78.29,3.8.08,0,.21-.19.26-.24l1.37-1.37c2.16-2.16,4.76-3.73,7.76-4.41.22-.05.4,0,.47.1.35.48-2.05,2.9-2.74,4.66,3.23-1.6,6.54-2.53,10.08-2.4,2.82.11,5.52.74,7.79,2.31.06.15.06.43.01.51-.07.11-.32.12-.5.17l-4.3,1.12c-.11.03-.19.15-.14.21.03.04,7.23.81,13.27,8.18.1.12-.1.42-.19.41h-.51s-.45-.06-.45-.06c-.07,0-.04.15.06.22l.31.19c2.16,1.57,4.48,2.54,7.01,3.39l4.17,1.39c2.67.89,3.51,4.07,3.19,6.95l-.89,8.13c-.3,2.69-.26,5.26.12,7.93.38,2.63.22,5.48-2.43,5.97-1.03.19-2.07.15-3.06-.18l-2.6-.86c-5.65-2.64-8.32-6.92-8.46-6.97-.12-.04-.24,0-.37.12-1.22,1-2.61,1.52-4.23,1.84.83,1.07,1.55,2.11,2.17,3.29.67,1.28,1.42,3.61,1.04,3.86-.15.1-.39.11-.59.04l-4.72-1.75c1.95,3.54,2.22,7.43.69,10.99-.12.29-.28.67-.62.66-.94-1.74-2.11-3.37-3.67-4.58-.1-.08-.17-.21-.21-.18-.13.08-.07.3-.05.42l.41,3.63c.29,2.53,1.36,4.76,3.35,6.36.1.3-.48.54-.75.59-1.5.28-2.91.11-4.39-.33l1.55,2.37c.96,1.47,1.71,3.06,1.94,4.8-1.2.26-2.51-.29-3.63-.91-.2-.21-.43.02-.21.22.27.61.42,1.27.86,1.75,1.32,1.42,3.75,1.71,3.84,1.93.12.3-1.27,1.68-2.47,2.28-.15.08-.08.28.09.31,1.19,1.25,2.78,1.73,4.5,1.7l2.39-.24c-.63,2.66-3.44,4.23-3.43,4.23-.05.19.14.26.32.36,3.45,1.89,7.1,3.16,10.99,3.87l8.42.88c3.37.35,6.6.54,9.93,1.23,5.42,1.11,10.42,3.25,14.97,6.37,2.78,1.9,5.33,3.92,7.61,6.37l1.89,2.34c.49.6-1.08.36-2.59-.27-.2-.08-.41-.18-.56-.11l.18.21c3.56,3.18,6.2,7.24,8.3,11.52.99,2.02,1.7,4.09,1.89,6.22-.18-.03-.25-.08-.31-.12l-.18-.12-.18-.12-.17-.13-.44-.34c-.07-.05-.19-.1-.22-.14-.04-.06-.2-.06-.19.02,0,.15.11.27.16.38l1.02,1.86c.78,1.43,2.21,2.34,3.71,3.06,2.45,1.17,5.32.54,7.22-1.43,1.68-1.73,2.69-3.96,3.07-6.37l.26-3.14c-.09-3.14-.82-6.09-2.15-8.9l-1.21-2.56c1.2.07,2.42.85,3.3,1.52l.17.13,1.77,1.54.51.54.15.17.23.29c.08.1.25-.02.15-.25-.9-5.56-3.03-10.68-6.17-15.33-2.49-3.68-5.55-6.8-9.24-9.23-.13-.08-.17-.26-.19-.34s.02-.26.22-.29c6.89-1.26,15.29.34,21.54,3.55,6.96,3.57,12.16,8.7,15.26,15.52.1-.28.06-.39.05-.49l-.02-.27-.02-.25-.03-.26-.03-.28-.04-.28-.04-.26-.68-4.37c.16-.15.35-.14.54,0l.18.13.17.13.17.13.17.13.16.14.16.15.15.15.15.15.15.15.15.15.15.15.15.15.14.16.14.16.13.17.13.17.14.16.14.17c1.24,1.49,2.3,3.06,3.17,4.8l.1.2.1.2.1.2.1.2.1.2.1.2.1.2.1.2.1.2.09.21.09.21.09.22.09.21.09.21.09.22.08.22.08.21.08.22.08.22.08.22.08.22.08.22.12.23c1.7,5.71,2.41,11.75,1.6,17.66l-.06.29-.04.26-.04.25-.04.26-.04.26-.05.26-.05.25-.05.26-.05.26-.05.25-.05.24-.05.24-.86,2.92-.08.22-.08.22-.1.23c-.17.13.07.3.11.12l3.1-4.48c.45-.65,1.07,2.98.78,5.79-.79,7.44-4.28,14.79-10.49,18.62,2.18.14,4.86-1.09,5.54-1.01.57.07-1.06,2.14-1.92,3.14-2.28,2.65-4.96,4.71-8.09,6.35-4.38,2.3-9.48,2.96-14.34,1.95-2.21-.46-4.14-1.33-6.12-2.3-.07-.18-.27-.18-.33-.07l1.56,1.68c1.43,1.53,3.09,2.62,5.05,3.62-.73.59-1.56.65-2.4.63-2.33-.06-4.53-.59-6.71-1.4-3.53-1.3-7.35-4.52-9.58-7.87-.07.52.11,1.03.25,1.57l.66,2.5.85,2.31c1.76,4.75,6.37,6.66,6.44,6.8.18.31-.1.44-.58.68l-.2.11-.21.1c-1.62.55-3.33.49-4.97-.08l-.33-.15c-.16-.07-.32.11-.04.24,1.69,3.37,4.08,6.17,7.15,8.33.55.39-.22.95-1.76,1.01h-.34c-.07.02-.08.21.12.25,1.47,1.68,2.2,3.8,2.22,6.08l.09,10.37,1.13,13.94.64,7.72c.37,4.42-.57,11.48-4.3,14.28-2.16,1.62-4.97,2.19-7.61,1.78-.53-.08-.83-.26-1.37-.08-2.79.94-5.93,1.09-8.64-.17-.77-.36-1.29-.66-2.17-.74-4.34-.4-5.92-4.56-5.17-8.78.46-2.56,1.48-4.9,3.35-6.72,2.02-1.97,3.84-1.53,4.6-3.84.83-2.51.98-5.11.95-7.78-.05-4.48-.84-8.71-2.54-12.82-.77-1.85-1.56-3.58-2.91-5.07s-2.89-2.49-4.52-3.6l-7.86-5.38c-3.76-2.87-7.1-6.11-9.95-9.89,0-.2-.2-.27-.29-.15-.66,2.26-1.18,4.49-1.35,6.83-.12,1.66.22,3.16,1.05,4.58l1.11,1.9c.91,1.56,1.2,3.3.86,5.08l-1.21,4.05-3.73,9.63-3.51,10.32-1.82,5.11c-.68,1.91-1.7,3.58-2.95,5.18-1.49,1.9-3.4,3.23-5.74,3.89-2.35.85-4.77.97-7.15.22-1.74.4-3.42.61-5.17.32-1.41-.15-2.66-.65-3.75-1.54-1.45-.06-2.62-.89-3.25-2.16-1.49-2.95-.22-7.14,1.7-9.8,1.6-2.22,4.04-3.54,6.72-3.93,1.3-.19,2.27-.78,3.05-1.79.96-1.25,1.64-2.57,2.32-4.02,1.57-3.39,2.67-6.88,2.99-10.63.13-1.54-.06-3.06-.6-4.49-.32-.86-.94-1.54-1.58-2.17l-4.35-4.36c-1.3-1.3-2.28-2.76-3.14-4.39-.88.66-2.07,1.43-2.7,1.48-.37.03-.04-.63-.21-1.12-1.09.8-2.14,1.4-3.35,1.96-.01,1.56-.11,3.92-.6,3.71l-.56-.24-1.7-.89c.11,4.49-.31,8.92-1.73,13.26-.28.86-.44,1.78-1.13,2.26-.25-.31-.34-.6-.49-.51-.06.04-.03.21-.04.32-.26,3.47-.7,6.83-1.76,10.21Z" fill="#060706"/>
                <g>
                  <path d="M115.21,36.71l.12.15c.88-.07,3.38.5,3.88,1.13.19.25.21.37-.09.49-1.48.15-2.88.55-4.2,1.23,1.33.07,2.6.33,3.83.79.14.08.24.17.25.26.06.68-3.78,1.96-4.55,2.19,1,.7,2.11,1.23,3.33,1.58.34.26.5.4.16.69-.8.67-3.72.42-4.77.23,3.12,5.78,6.54,11.69,13.14,14.36l.41.53c-.14,0-.23.2-.05.24,2.33,1.45,4.18,4.48,5.2,7.05l-4.4-1.96-3.12-1.52c2.88,3.68,4.64,7.88,3.63,12.39-1.9-2.48-4.11-4.45-6.86-5.91.58,1.04,1.1,1.98,1.28,3.12l.81,5.03c.32,2,.96,3.82,2.35,5.44-1.38.05-2.54-.41-3.72-.9l-2.62-1.08c2.03,2.77,3.89,5.47,5.34,8.53-.69-.21-1.46-.53-1.71-1.18-.13-.34-.45-.54-.7-.86l-2.67-3.34-3.42-4.1,1.3,2.65c-1.27-.99-2.58-1.8-3.62-3.05-1.23-1.48-2.18-3.33-2.38-5.26l-.78-7.67-.68-5.77c1.11,1.46,1.75,3.03,2.61,4.75-.19-3.42-.89-6.69-1.87-9.97l2.42,2.61c-.59-2.12-1.08-4.12-2.1-5.97l-2.89-5.25,2.32,1.47,2.99,2.05c-.72-2.65-1.95-4.93-3.51-7.1l-3.02-3.61c.75.1,1.28.64,2.02.52l-4.42-2.57c1.73-.45,3.5-.75,5.51-.8-3.12-2.86-6.96-4.74-11.09-4.71l1.66-1.17c1.08-1.07,1.96-2.27,2.48-3.83-2.66,1.7-5.55,2.42-8.51,1.96,2.48-.02,5.52-2.14,7.07-4.15l2.09-2.7c.21,1.7-.24,3.17-.44,4.96,2.78-3.32,5.6-6.66,9.3-8.24-1.55,2.18-2.67,4.42-3.56,6.95,4.69-4.55,12.13-6.45,18.42-4.19-1.92.52-3.72,1.23-5.45,2.22l-2.05,1.17c5.72-.99,11.91,1.85,15.83,6.02l-4.24-.24c4.33,2.01,6.89,4.73,11.69,6.18l4.28,1.29c1.82.55,3.02,1.96,3.22,3.89.13,1.19-.03,2.38-.16,3.61l-.82,7.52c-.47,4.31.56,7.79.28,10.16-.36,3.04-4.83,1.62-7.46.21-6.72-3.62-9.68-9.94-12.42-16.73-.92-2.29-1.89-4.39-3.11-6.51-1.39-2.41-3.38-4.27-5.98-5.29-1.84-.73-4.48-.67-6.3-.1.2.12.36.08.54.13Z" fill="#262626"/>
                  <path d="M152.82,187.48c.13.19.32.55.32.86-.72,2.48-1.36,4.9-1.72,7.44-.31,2.2.03,4.22,1.13,6.14l1.59,2.76c.7,1.22.56,2.81.09,4.14l-2.13,6-6.59,18.5c-.71,1.98-1.32,3.84-2.3,5.68-.84,1.59-1.83,3.12-3.24,4.27-2.52,2.06-7.43,3.58-9.78,2.05-.59-.39-.62-1.55-.61-2.22.06-3.31,2.04-7.49,5.16-8.69-.97-.11-1.76.34-2.47.88-2.88,2.2-4.45,6.71-3.33,10.28-2.36.43-5.77.54-7.2-.98-.56-.59-.51-1.56-.58-2.26-.12-.13-.24-.29-.26-.47-.07-1.07.7-3.4,1.16-4.42.68-1.51,1.65-2.87,2.96-3.89-3.17,2-4.62,5.87-4.35,9.52-.13.26-.19.52-.16.79.11.63-2.33-.22-2.42-3.05s.93-5.21,2.7-7.27c1.34-1.57,3.29-2.47,5.35-2.74,1.37-.18,2.47-.71,3.39-1.75,1.36-1.56,2.31-3.34,3.14-5.27,1.83-4.24,3.31-9.35,2.61-13.93-.24-1.61-.96-2.94-2.11-4.08l-4.67-4.63c-1.3-1.29-2.24-2.81-3.03-4.45l.97-.94.12-.55,1.85-2.27c.33-.31.49-.1.68.28.21.94.47,1.99,1.21,2.65.17-.86.5-1.63.99-2.31l3.58-2.79c2.39-2.08,4.75-4.62,6.04-7.59.25-.22.44-.1.65.12l-.13,3.76c2.75-2.45,4.74-5.7,5.66-9.29l.43-.43c.34-.17.62-.2.85-.08l.33.03c.97,3.17,2.14,6.46,3.96,9.35l.18.84Z" fill="#e2d0bc"/>
                  <path d="M235.47,135.56c-.16,5.39-2.19,11-4.64,15.85-1.98,3.92-4.54,7.4-8.28,9.8,2.18-.51,4.37-1.32,6.26-2.48h.32c2.32-1.06,4.51-2.44,6.17-4.46l2.5-3.06c.07,1.39-.07,2.66-.26,3.93-3.21,8.47-11.81,14.13-21.06,14.13l-7.02-.65c-.92-.18-1.23-.72-.14-.59.09-.43.63-.38.7.04,1.29.08,2.6.1,3.91.05l.44-.37c2.85-.46,5.62-1.64,7.6-3.73-2.82.37-6.57-.09-8.96-1.72-.07-.05-.13-.13-.18-.22-.05-.1-.09-.2-.12-.31-.11-.19-.16-.36.04-.44,4.15-1.03,7.72-3.64,9.53-7.56-2.63,2.39-6.21,4.51-9.87,4.44-.36,0-.54-.21-.32-.53l.15-.53c1.52-1.37,3.72-4.68,3.68-6.74-1.3.61-2.67,1.08-4.12,1.43-2.31.36-4.59.74-6.85,1.14-.33-.16-.53-.29-.3-.62,1.44-1.28,2.74-2.77,3.49-4.56l.45-.32c1.75-3.72,3.02-7.77,2.77-11.89-.35,1.65-.9,3.2-1.67,4.66l-.32.22c-.17-.03-.12-.11.02-.22-.41.02-.61-.29-.61-.96.73-4.73,1.05-9.68-.34-14.3.02-.23.06-.66.16-.7.57-.18,2.4,3,2.77,3.7.5.94.92,1.91,1.31,2.9-1.14-11.03-8.77-21.29-18.45-26.32l-.46-.1c-.24-.19-.57-.26-.8-.61l3.64.08c6.16.13,12.13,2.04,17.41,5.22,8.13,4.91,13.59,12.78,14.4,22.28.51-3.13.5-6.09.46-9.16l-.4-3.57c2.32,2.72,3.91,5.76,5.14,9.07.95,2.57,1.45,5.17,1.86,7.79Z" fill="#fcf5ea"/>
                  <path d="M188.21,197.38l.72.11c1.67,2.54,3.51,4.94,5.53,7.21.72.95,1.27,2.03,1.59,3.18l1.48,8.57c.83,7.81,1.59,15.59,2.29,23.33-.45,5.32-2.67,12.71-9.45,10.08-.36,0-.69-.07-.98-.18l-.04-1.05c.14-1.67.55-3.26,1.16-4.88.46-1.22,1.14-2.17,2.3-2.89-.87-.03-1.43.56-1.93,1.17-1.72,2.14-2.5,4.85-2.63,7.54-.23.18-.46.16-.6-.09-2.59,1.66-4.91,1.45-7.66.12-.12.05-.24.06-.36.02l-.06-1.13c.14-1.54.56-2.99,1.1-4.52.72-2.08,2.14-3.7,4.06-4.59-1.23.01-1.98.76-2.83,1.3-2.42,2.01-3.06,5.14-3.55,8.06-.65.43-1.99-.28-2.6-.76-1.12-.86-1.32-1.92-1.12-3.27.76-3.1,2.37-5.8,5.5-7,.79-.3,1.42-.81,1.8-1.54.7-.04,1.22-.87,1.55-1.52,3.36-6.6,3.32-14.09,2.11-20.97.13-.25.36-.25.61-.13l1.78,2.25c-.27-2.18-1.09-4.27-2.35-6.07-.06-.16-.1-.31-.05-.38.5-.64,1.89.74,2.28,1.13-1.03-2.74-3.68-4.47-6.16-5.85l-7.81-4.03c-4.22-2.64-8.1-5.96-10.76-10.19l.9,2.18c.04.66-.07.8-.65.4-2.37-2.74-4.4-5.78-6.09-9.11l.27,3.46c-.26.37-.35.42-.74.13-.78-.59-2.18-2.9-2.76-3.86-2.68-4.45-4.18-9.55-4.04-14.76l.31-7.32c.01-.35.19-.46.49-.24.33,4.78,1.6,9.47,4.02,13.7,1.4,2.44,3.15,4.45,5.22,6.51-.48-2.13-.87-4.17-.94-6.4,2.05,5.43,5.35,10.3,9.88,13.99,1.51,1.22,2.98,2.29,4.82,2.94-.92-1.58-1.8-2.93-2.4-4.61,1.16,1.51,2.29,2.88,3.79,4.06,3.65,3.14,8.39,5.11,13.04,5.89Z" fill="#fcf5ea"/>
                  <path d="M209.39,140.23c0,.05-.03.17-.02.22.16.12.31.27.37.47.54,1.71-.26,4.99-1.15,6.54-.76,2.08-2.16,3.73-3.91,5.25l2.31-.46c3.15-.32,6.69-.83,9.31-2.52-.33,3.13-1.89,5.95-4.23,7.94,0,.38-.22.67-.64.85l-2.4,1.18c1.18.4,2.34.93,3.49,1.59l.18.46c2.87,1.81,6.37,2.5,9.89,1.84-.34.68-.99,1.2-1.65,1.72-2.08,1.64-4.49,2.41-7.02,2.79-1.31.05-2.62.04-3.91-.05l-.7-.04c-.72-.03-.8.02-.26.51,3.9,4.28,7.32,8.02,13.51,8.36,1.79.1,3.59-.13,5.28-.72l.61.09c-.41.67-1.01,1.22-1.71,1.61l-4.06,2.26c-8.34,3.83-18.09,1.43-24.08-5.47l1.68,3.45c.73,1.5,1.82,2.75,2.99,3.92l3.05,3.05c-6.1-.75-11.45-4.32-14.42-9.56-.24-.62-.04-1.44.02-2.08.54-5.83.08-11.64-1.73-17.21l2.53,2.73c.1-1.29-.03-2.43-.35-3.61l-2.36-8.69c.97.74,1.92,1.19,3.04,1.56,4,1.3,7.24-.75,9.43-4.27.2.05.25.25.34.37l.21.25-.85,1.72c2.97-1.21,5.48-3.23,6.83-6.18.15-.03.27.03.37.15Z" fill="#262626"/>
                  <path d="M150.78,161.3s-.18.05-.18.16l-.3,7.05c-.29,6.95,2.39,13.73,6.94,19.04l-.42-5.27c1.27,2.66,2.77,5.14,4.43,7.61.78,1.16,1.52,2.25,2.61,3.17-.6-1.47-1.31-2.73-1.51-4.29,1.56,2.31,3.02,4.61,5.1,6.5,2.42,2.2,4.88,4.26,7.78,5.74l6.09,3.1c2.05,1.05,3.91,2.28,5.46,4.01.88.98,1.36,2.2,1.7,3.39-.98-.77-1.55-1.77-2.79-2.14,1.65,2.25,2.48,4.71,2.66,7.48l-2.52-3.25.62,3.46.16,6.04c-.05,3.89-.92,7.63-2.59,11.12-.43.9-.93,1.65-1.68,2.32-.21-.11-.31-.25-.44-.38,2.27-4.4,1.62-13.03.35-18.11-.98-3.95-3.16-9.42-6.5-11.69l-4.12-2.81c-3.7-2.52-7.32-4.97-10.63-8-2.93-2.68-5.49-5.55-7.54-8.85-.13-.06-.25-.12-.36-.2s-.21-.16-.27-.26c-2.75-4.24-4.29-9.72-4.98-14.68-.54,3.28-1.15,6.7-2.49,9.73-.41.92-1.93,3.42-2.77,3.81-.35.16-.47.08-.67-.24-.03-1.67-.11-3.33-.25-4.99-.74,3.07-2.35,5.35-4.23,7.79-.21.27-2.52,2.59-2.71,2.62-.38.05-.61.08-.6-.35l.63-3.17c-1.24,2.65-2.66,5.13-4.27,7.46l-.44.19c-.68-.22-.83-3.1-.81-3.85-.78,1.56-1.75,3.07-2.99,4.32-.07.07-.17.11-.28.15s-.23.06-.36.07l-2.55,2.17,1.35-4.42c-1.79,2.7-3.35,4.62-6.4,5.88l-.47-2.71c-.52-.48-1-1.7-.88-2.4-.48-.2-1.21-1.25-.58-1.58,1.19.19,2.36.16,3.5-.09-1-.91-1.93-1.87-2.79-2.91l-.06-.55c1.87-1.27,3.46-2.79,4.83-4.67l-1.48,4.18c4.44-1.91,8.49-6,10.96-10.04-.31,1.81-.75,3.44-1.33,5.11,2.5-1.49,4.52-3.38,6.45-5.55,3.12-3.5,5.47-7.4,7.22-11.79.07,2.25-.48,4.21-.69,6.29,2.18-2.16,3.67-4.58,4.94-7.24,1.39-2.91,2.45-5.81,3.22-8.93l-.08,5.46Z" fill="#e2d0bd"/>
                  <path d="M195.75,197.22l2.44,2.32c-1.27.18-2.35-.19-3.59-.68l2.71,2.65c1.38,1.83,2.08,3.92,2,6.26-.19,5.83.01,11.5.55,17.31l1.13,12.14c.43,4.58.2,10.59-2.79,14.06-1.67,1.94-5.93,3.19-8.07,2.04-.87-.47-.92-3.18-.8-4.7.07.32.03.63.13.9.73-.11,1.39.15,2.03.35,3.5,1.08,5.93-1.49,6.92-4.85.51-1.72,1.04-3.42,1.09-5.24l-.39-4.49-1.91-18.8-1.29-7.71c-.31-1.83-1.17-3.32-2.38-4.72-1.75-2.02-3.4-4.01-4.79-6.3-.12-.2-.43-.27-.55-.38.17.07.38.18.63-.03l-2.89-3.94c2.66,1.89,5.47,3.23,8.65,3.74l1.15.07Z" fill="#e3d1bd"/>
                  <path d="M228.44,176.27c-2.28.9-4.82,1.14-7.28.79-3.84-.55-7.05-2.59-9.59-5.44-1.29-1.44-2.47-2.81-4.11-3.98l1.85.38c-.14.03-.31-.01-.52.12.51.22,1.07.2,1.67.26l6.02.57c3.46,0,6.75-.84,9.89-2.29s6.04-3.8,8.18-6.68l2.98-4.87c-1.06,6.92-4.73,13.89-11.34,16.92-1.56.72-3.13,1-4.81,1.08,3.36,1.18,6.72.92,10.22.19-1.07.99-1.89,2.44-3.16,2.95Z" fill="#e2d0be"/>
                  <path d="M209.39,140.23c-.18.01-.22.11-.3.29-1.39,3.14-4.3,5.08-7.53,6.35l1.26-2.56c2.33-5.85,2.4-11.4-.37-17.37,1.96,1.49,3.45,3.41,4.21,5.68.61,1.82.41,3.63.6,5.59,1.64-7.98-.41-15.82-4.3-22.93-2.32-4.24-5.41-7.88-9.19-10.81.13-.1.35-.19.54-.09l2.68,1.39c6.94,4.51,12.35,11.51,14.85,19.43.81,2.57,1.34,5.12,1.3,7.92-1.02-3.2-2.32-6.1-4.52-8.69.42,1.89.94,3.55,1.02,5.45.12,3.01.04,5.92-.52,8.88-.11.57.02,1.07.28,1.49Z" fill="#e3d2c0"/>
                  <path d="M153.48,186.71c-.24.32-.09.73-.37.77-.07,0-.17-.02-.29,0-1.63-2.47-2.85-5.18-3.78-8.07l-.69-2.15c-.2,0-.35-.1-.46-.34-.02.26-.15.4-.39.42-1.18,4.51-2.86,7.16-6.42,10.5l.16-4.68c-.88,1.62-1.55,3.26-2.86,4.56l-3.33,3.29-3.24,2.47c-.88.67-1.03,1.95-1.4,3.02-.99-.86-1.45-2.13-1.68-3.53-.73,1.01-1.43,1.97-2.3,2.8-.4-.01-.68-.27-.82-.67,1.72-1.7,3.05-3.7,3.93-6.04,0,1.86-.11,3.51.57,5.18l2.3-3.61c1.23-1.93,2.16-3.89,2.78-6.06.02,1.97-.4,3.7-.84,5.64l2.86-2.76c2.45-2.76,3.99-6.05,4.58-9.65l.29,3.55.13,3.67c1.72-1.49,2.74-3.27,3.46-5.38,1.28-3.79,1.88-7.68,2.31-11.61-.08,6.46,2.14,13.32,5.47,18.67Z" fill="#201e1c"/>
                  <path d="M229.12,158.73c-.03.16-.18.32-.38.42-2.46,1.33-5.05,2.27-7.8,2.68,6.02-3.38,8.79-8.24,11.33-14.35,1.46-3.51,2.49-7.06,2.94-10.84l.25-1.08c.97,6.25.16,12.72-2.62,18.49-.92,1.91-2.24,3.35-3.72,4.68Z" fill="#e3d1bf"/>
                  <path d="M195.75,197.22c0,.12-.03.29-.11.29-2.81.06-6.02-1.5-8.43-2.9l1.83,2.55c.09.53-.19.6-.83.22-.12.06-.25.11-.38.14s-.25.06-.36.03c-5.69-1.16-11-3.76-14.86-8.13.46.77.89,1.56,1.29,2.36.12.36.01.41-.35.42-.74,0-2.58-1.21-3.26-1.7-4.74-3.39-8.41-8.13-10.77-13.46.22,1.4.44,2.8.66,4.2.02.49-.1.49-.52.24-1.05-.6-3.21-3.43-3.98-4.56-3.03-4.42-5.11-10.26-4.88-15.63l-.3-.11.03-2.96c-1.63,4.99-3.7,10.04-7.44,13.79-.47.35-.55.05-.62-.5l.59-4.12c-2.2,4.83-5.27,9.35-9.19,12.94-.62.57-3.73,3.26-4.23,2.87.15-1.22.42-2.44.81-3.66-1.52,2.01-3.26,4-5.26,5.64-.91.74-3.7,2.83-4.71,2.98-.39.06-.5-.04-.61-.39l.84-2.38-2.53,2.43c-.42.45-.89.67-1.42.67h-.37c-1.12-1.08-1.63-2.32-1.52-3.69.68-2.65,1.02-5.36.48-8.1.13-.47.39-.64.82-.37l.73,1.98c.8-1.6,1.22-3.37,1.26-5.29l.33-.51-.28-.54-.28-3.81c.4-.86.81-.08,1.08.51l.55,1.47c1.87-4.7,1.61-10.43-.42-15.1-.14-.91.77-.33,1.21-.03s1.12.84.99,1.35c.85.91,1.41,1.99,2.13,3.19,1.21-3.17.44-7.41-.61-10.78,1.05.22,1.82.63,2.77.57-1.79-2.7-2.94-5.43-3.61-8.53.07-.18.29-.09.26.12l3.07,4.46c.21-2.09.78-4.02,1.34-6.08,1-3.67,1.21-7.32.53-11.13l2.59,4.61c.59-1.05.75-2.17,1-3.37.98-4.74.6-9.62-1.46-14-.06-.14-.04-.25.02-.27.05-.02.18.1.23.14,1.64,1.06,2.83,2.48,3.87,4.11.06-3.31-1.39-7.31-2.88-10.19-.91-1.75-2.04-3.16-3.41-4.64,5.48,2.97,11.3,4.58,17.44,5l6.34.44c9.54.66,17.88,4.06,25.12,10.22,1.29,1.1,2.51,2.05,3.64,3.36l-6.28-1.83,4.84,3.68c2.45,2.26,4.7,4.77,6.19,7.76l3.25,6.52-3.44-1.51c3.54,5.37,5.78,11.03,6.83,17.29l-3.96-4.46c2.28,4.6,4.01,11.86,3.91,16.73l-.13,6.13-2.47-5.84c-.18.33.12.58.16.85l.92,5.83c.94,5.93,2.05,11.98,7.56,15.46-3.01.34-5.73-.94-7.67-3.24.39,1.35,1.4,2.17,1.96,3.38,1.16,2.52,2.43,5.02,4.4,6.89Z" fill="#262626" stroke="#060706" stroke-miterlimit="10"/>
                  <path d="M188.24,249.56c-.06,1.34.29,2.62.57,4.05-2.87,1.13-8.47,1.02-9.08-1.74-.25-1.14-.27-2.3-.17-3.39l.1.93c.12-.11.3-.17.47-.09,2.37,1.21,5.33,1.54,7.47-.13.28.09.44.24.64.36Z" fill="#e1cfbc"/>
                  <path d="M121.62,155.69c-.16.23-.23.44-.3.67-.57-.61-1.16-1.21-2.05-1.67,2.03,4.2,2.25,9.4,1.16,13.85-.19.78-.42,1.52-.94,2.22-.55-1.04-.62-2.06-1.33-2.91.29,1.65.39,3.14.31,4.66-.15.25-.3.25-.45.02.07.88-.55,1.51-.56.31.21-3.46-.33-6.87-1.57-10.21,1.54,1.56,2.6,3.4,3.57,5.36,1.01-4.05.71-8.12-.65-11.83l-1.7-3.66c1.37.53,2.39,1.27,3.35,2.14l1.17,1.05Z" fill="#0f0e0d"/>
                  <path d="M181.89,240.68c-.98,1.03-1.72,2.24-2.24,3.63-.97,2.63-1.55,5.5-.69,8.34-2.42-.04-4.33-1.69-4.63-4.14-.16-1.33-.02-2.58.28-3.81.13,2.42,1.11,3.35,3.48,3.98l.86-3.88c.59-1.63,1.52-3.24,2.93-4.13Z" fill="#dfceba"/>
                  <path d="M121.17,242.34c-.23.14-.1.6-.26.8-.21.25-.45.39-.39.73-.66-3.35.66-7.65,3.4-9.87,1.08-.87,2.28-1.58,3.72-1.54-4.18,1.53-6.09,5.62-6.46,9.89Z" fill="#1d1b17"/>
                  <path d="M148.35,177.26c-.13,0-.24.1-.27.3l-.33,2.29c-.02.05-.06.09-.11.1l.04-2.12c0-.23-.06-.39-.18-.49.08-.31-.01-.8.6-.7.16.03.19.44.25.62Z" fill="#776c61"/>
                  <path d="M212.7,161.75c-1.55-.97-3.15-1.74-5.14-1.87,1.66-.52,3.23-1.11,4.52-2.21.05.11.19.24.33.23,1.77-.11,3.44-.46,5.06-1.17,2.14-1.07,3.89-2.48,5.66-4.22-.58,1.61-1.4,2.92-2.34,4.22-2.04,2.4-4.66,4.01-7.72,4.77-.17.04-.29.11-.37.25Z" fill="#e2cfbe"/>
                  <path d="M208.59,147.47c.82-2.25,1.16-4.66.78-7.01.9-1.99,1.54-4,1.99-6.29.39,1.02.35,2.02.32,3.08-.1,3.35-1.21,7.56-3.08,10.22Z" fill="#e1cfbd"/>
                  <path d="M213.92,168.11l-3.62.11c-.16,0-.27-.05-.29-.15l3.91.05Z" fill="#e2d0be"/>
                  <g>
                    <path d="M47.09,159.37c.12.01.29.05.3.13.04.22.06,1.84,0,1.91-.08.1-.17.18-.3.21-.01.15-.07.28-.16.39-.17,8.05,4.44,12.59,9.64,17.57,1.5,1.95,2.78,4.03,3.82,6.22.36-2.86,1.88-5.51,3.77-7.69l5.09-5.52c2.31-2.85,3.12-6.4,3.46-9.97-.43.01-.4-.34.02-.42.02-.94.11-1.88.26-2.82l4.13-4.59c.28-.06.42.11.49.38l-.61,3.6c2.12-2.7,4.38-5.26,6.72-7.76.25-.04.42.09.55.3l-1.12,5.84c3.44-3.09,6.58-6.54,9.06-10.46.28-.43.47-.37.79-.08l.19,6.01,6.68-12.76c.44-.23.65-.19.71.34.12,1.35.07,2.7-.14,4.04,2-3.02,3.53-6.26,4.59-9.72.15-.4.35-.35.69-.22.22.09,1.61,4.03,1.7,4.5l.31,2.93c.34.08,0-.62,0,0l1.02-1.5c.22-.77.42-.78.79-.1.53,3.78,2.92,7.22,6.62,8.45-.76-1.5-1.21-3.05-1.36-4.64.06-.33.21-.38.46-.15,1.55,2.08,3.18,4.04,4.9,5.89.9,1.42,2.28,3.76,2.56,5.4.04.21-.04.41-.12.6.12.37.19.75.17,1.28l-1.15-1.3-.3.14c-1.07-1.09-2.27-2-3.6-2.73l1.27,2.74-.18.32c.36,2.24.31,4.45-.15,6.64-.22.42-.4.66-.72.29-.62-.94-1.26-1.86-2.08-2.65-.41-.4-1.81-1.59-2.26-1.67-.02,0-.04.05-.03.11.35,1.86,1.72,9.84.28,11.13-.22.2-.33.26-.56-.02-.58-.8-1.17-1.58-1.88-2.27-1.16-1.14-2.3-2.16-1.13.16.72,2,1.1,4.13,1.03,6.25-.03.75-.19,2.9-.52,3.43-.21.34-.36.34-.69.16l-.97-2.7c-.39,3.42-.77,7-.39,10.55.02.51-.16.56-.58.51l-1.89-2.69c1.02,4.19,1.91,8.46,2.68,12.79.05.44.24,2.26-.1,2.26-.15,0-.39-.21-.54-.35-.87-1.51-2.53-4.1-4.05-4.94-.02-.01-.05.02-.04.04,1.28,3,2.05,5.34,2.4,8.61.34,3.25.23,6.65-.29,9.87-.14.45-.31.47-.51.04-.44-1.51-.94-3.01-1.49-4.49-.03,5.69-.34,11.29-.93,16.79-.25.42-.63.26-.73-.19-.77,5.71-.89,11.35-.35,16.94-.37.61-.76.34-1.15-.8l-.5-1.55-.27,18.05c-.15,3.47-.43,6.98-3.39,9.41-1.41,1.15-2.86.74-4.39.07-.33.6-.58.46-.54-.17.09-2.96.74-5.76,1.58-8.75-1.59,2.68-2.2,5.75-2.57,8.74-.13.93-.47.78-.71-.03-1.71,2.38-4.93,2.75-7.45,1.43-.68-.36-.84-.45-.77-1.25.34-3.43,1.2-6.81,2.96-9.88-.6.18-.72.79-1.11,1.06-1.9,2.66-3.06,5.9-3.79,9.07-.35.92-.54.91-1.46.84-1.91-.14-4.27-1.44-3.96-3.64.48-3.28,1.81-6.61,4.44-8.85-.93.28-1.43,1.02-2.13,1.53l-1.05,1.26c-1.15,2.09-2,4.31-2.53,6.67-.94.48-1.61-1.12-1.78-1.93.3-1.95.93-3.87,1.98-5.65.88-1.49,2.1-2.62,3.6-3.46,1.13-.63,1.97-1.41,2.59-2.55.98-1.82,1.74-3.7,2.02-5.78l1.19-8.61c1.09-7.9,1.4-15.75.93-23.71l-.76-7.39-.32-.09c-.43-2.52-.86-5.04-1.28-7.56l.09-1.26c-.31-.09-.43-.45-.35-1.08l-.56,3.12c-.23.46-.4.7-.72.27-2.24-4.59-2.97-10.11-1.51-15.04-.19-.64-.09-1.32.28-2.05l.58-1.54-5.64,5.65c-.66.16-.78-.29-.37-1.35l1.44-3.93c-2.21,2.43-3.29,5.31-4.25,8.27-.18.4-.39.29-.7.08-.11-.07-1-2.14-1.1-2.43-.83-2.64-.43-4.36.39-6.83-.3.29-.56.63-.8.97-2.29,3.31-2.68,6.76-3.11,10.52-.31.28-.5.39-.7-.02l-1.08-5.36c-1.58,3.27-1.67,6.69-.76,10.15,0,.37-.23.42-.57.4-2.27-1.5-4.01-3.45-4.99-6.05-.48,1.89.09,4.15.97,5.97.07.36-.13.42-.45.51-.27.07-4.25-2.82-4.65-3.14-4.37-3.52-6.77-7.52-9.05-12.39-.02,1.44.01,2.88.29,4.29l1.73,6.16c.07.36.03.6-.38.61-.16-.03-.32-.07-.47-.14s-.29-.12-.41-.22c-5.73-4.81-10.59-12.17-11.77-19.59-.44-.51-.66-1.14-.68-1.89l-.26.26c.22,1.74.56,3.46,1.04,5.17.03.37-.06.37-.43.36-.25,0-2.33-4.03-2.42-4.42-.03-.1,0-.18.07-.25-.48-.19-.79-.62-.94-1.28-.49-1.63-.61-1.64-.33-.05.24.86.28,1.68.11,2.46l.63,3.01c-4.79-4.29-7.79-10.09-8.86-16.4-.36-2.13-.35-4.05.01-6.21l-2.37,5.62-.97,3.97c-4.06-7.85-3.77-16.83.23-24.75l-1.99,1.83c-1.66,1.53-2.96,3.3-4.08,5.32-.92-6.6.93-12.99,4.81-18.14.36-.2,2.16-1.19,2.31-1.16.41.08.62.13.46.6-1.15,2.38-1.95,4.85-2.43,7.4.88-.99,1.82-1.99,2.93-2.75,1.16-.91,1.59-.43,1.31,1.43.71.31.68.86.62,1.54-.66,2.44-1.24,4.91-1.73,7.41.37-.65,2.07-2.75,2.76-2.75.44,0,.67.02.61.52-.25,2.24-.26,4.57.26,6.75.73-1.34,1.48-2.69,2.5-3.83.6-.44.73-.46.98.31.98,3.85,2.78,7.6,4.89,10.99-.09-1.81-.04-3.69.15-5.63.04-.6.19-.76.72-.56.98,3.07,2.49,5.87,4.52,8.41-.11-.85-.23-1.71-.23-2.58,0-.5-.01-2.05.18-2.37.18-.3.34-.32.66-.2l2.19,4.86,1.47,2.11c-.05-1.17-.02-2.34.09-3.51.14-.79.31-.97.78-.3.61,2.31,2.48,3.87,4.36,5.2l.1,1.08Z" fill="#fcf5e9"/>
                    <path d="M51.99,137.26c.64-.13.66,1-.1.82-.85-.2-4.15-2.88-4.69-3.67-.13-.19-.17-.41-.18-.63l-.32-.06c-1.23-1.3-2.19-2.83-2.89-4.58.42,1.6.74,3.2.97,4.82.5-.09.55.61.18.83-.65.38-4.23-2.62-4.91-3.3-.91-.92-1.96-1.98-2.2-3.27-.11-.04-.22-.08-.32-.15s-.19-.12-.23-.2c-.61-1.05-1.09-2.19-1.53-3.31-.18.44,1.07,3.58,1.37,4.27l-.03.64c-.13,0-.26,0-.39-.01s-.24-.04-.33-.1c-4.8-2.98-8.72-7.99-9.25-13.58-.17,2.55.02,5.09.55,7.61.02.44-.09.45-.47.3-.83-.34-2.77-2.75-3.39-3.6-2.8-3.84-4.25-9.06-3.85-13.74l-1.33,2.27-.41.24c-.2.03-.26.14-.33.31l-.72,1.64c-2.18-5.68-2.06-11.52,1.4-16.72l-2.79,2.01c-1.59,1.14-2.75,2.64-3.84,4.42-1.16-5.37-.06-11.3,2.5-16.13,1.01-1.75,2.25-3.2,3.72-4.54-3.48.86-6.53,2.44-9.31,4.69.81-5.47,3.81-10.14,8.22-13.3,1.66-1.24,3.37-2,5.43-2.69-1.76-.21-3.31-.32-4.82-.98l.59-.25c.02.15.13.23.3.18,2.74-.91,5.19-2.22,7.74-3.54,1.21-.62,2.57-.66,3.88-.9l-2.25,2.82-3.96,4.45-2.57,2.44c2.18-.33,4.15-.73,6.26-1.54l-2.32,3.79c-1.22,1.99-2.65,3.66-4.45,5.27,1.84-.33,3.44-.59,5.19-.66l3.29-.6c-.99,3.11-3.79,4.43-5.46,7.16,1.79-.67,3.52-1.05,5.25-.56l2.26.64c-.79.62-1.31,1.29-1.78,2.07l-2.35,3.84,2.5-.84c1.66-.56,3.3-.36,4.8.67-1.69,1.52-2.7,3.47-3.21,5.56,2.6-1.44,4.99-2.51,7.28-.61-1.88,1.58-3,3.64-3.43,6.02l.99-.72c1.75-1.27,3.97-1.11,5.58.03-2.26,1.85-3.53,4.5-3.64,7.29l-.14,3.24c.53-1.36,1.09-2.67,2.09-3.79.89-1,2.41-1.91,3.12-1.48.14.09.3.48.18.69-1.87,3.25-.64,9.47,1.02,13.02-.01-2.26.1-4.36,1.21-6.21.21,3.19.7,6.19,2.3,8.77.49.79.79,1.33.77,2.32-.06,2.88.59,5.68,1.97,8.18.96,1.75.55,2.96,1.28,2.95Z" fill="#fcf3ea"/>
                    <path d="M34.24,178.12l.54.51c3.06,6.92,8.38,13.2,15.07,16.62l-.93-2.3c.13-.55.21-.7.64-.34,3.19,4.22,7.53,7.42,12.15,9.93l.49.6,1.28.75c-.21,2.35-.78,4.55-1.3,6.85l-1.59,6.98-.37,3.63c-.87-1.27-1.23-2.67-1.58-4.15-.05,2.36-.24,4.51-.64,6.8-.57,3.27-.9,6.45-.99,9.77-.11,4.14-.82,8.27-3.03,11.76l-1.35-5.03c.16,2.15.03,4.04-.42,6.07-1,4.41-2.15,9.41-5.58,12.49-3.2,2.88-9.76,3.65-10.54,1.62-.51-1.33-.49-2.77-.21-4.09h.31c2.64,1.69,4.11,1.76,6.88.27,2.68-1.43,4.1-4.31,4.98-7.19,1.73-5.69,2.34-11.74,2.04-17.66,0-.32.12-.5.39-.45.11-4.11-.67-8.62-1.66-12.58-.02-.06-.05,1.24-.04,1.33-.18.17-.39.18-.62.08-.86-3.59-2.02-7.14-3.47-10.63l.3,3.49c-.16.22-.38.2-.62.11l-7.44-14.92c-.17-.61-.37-1.16-.61-1.67l-.64-3.37-3.7-14.92-1.35-5.6c-.08-.46.15-.53.45-.17l.77,1.87,2.43,3.53Z" fill="#e2d0bc"/>
                    <path d="M35.84,256.59c.35-1.65.85-3.28,1.66-4.82.76-1.44,1.96-2.41,3.23-3.45-3.74,1.2-5.24,4.96-5.99,8.48l-.2.38c-2.04.91-4.25,1.37-6.3.28-.81-.43-2.22-1.23-2.03-2.22.91-3.86,3.03-7.79,6.64-9.08-.89-.12-1.41.41-2.05.54-3.13,1.69-4.88,5.26-5.85,8.58-1.38,1.7-3.6-.3-3.55-2,.39-2.04,1.18-3.97,2.43-5.71,1.37-1.9,3.27-3.06,5.54-3.62,2-.5,3.56-1.59,4.64-3.36,1.5-2.47,2.4-5.11,2.79-8.04,1.6-11.95,1.72-23.99-.53-35.79.15-.28.37,0,.2.15l3.99,8.07,4.19,8.36-.44-5.06c1.18,2.12,2.05,4.31,2.69,6.63l1.53,5.5.04-4.43,1.71,8.43c.54,2.67.73,5.26.58,8.04l-.43-.83c.08,2.99.18,5.81-.18,8.75s-.85,5.66-1.6,8.48c-.63,2.34-1.66,4.57-3.1,6.49-.95,1.28-2.44,1.87-3.84,2.48-2.24.97-3.26.2-5.37-.8-.23-.11-.36-.21-.4-.44Z" fill="#fcf4e9"/>
                    <path d="M117.45,172.85c0,.25,0,.46.26.57-.05.56-.29,2.99-.83,3.04-.09,0-.19-.07-.29-.18-.67-1.2-1.36-2.38-2.08-3.55l.6,3.59-.29.45c.14,1.12.14,2.34,0,3.46.11.03.28.1.28.18-.04.45-.47,3.77-.61,3.91-.06.06-.13.1-.2.13-.47.13-1.29-1.47-.91-1.83-.34,0-.6-.27-.77-.8.22.47.25.91.09,1.31l.52.56c1.01,2.76,2.63,5.24,4.54,7.47.34.5.06.56-.49.63s-3.51-1.21-3.81-1.68c-.05-.07-.06-.17-.07-.27l-.22.22c.07-.05.14-.08.18-.06.24.11,2.09,3.02,2.26,3.43l-.14.34c.39-.21,1.06,1.77,1.05,1.91,0,.12-.11.22-.21.3.41,1.88.76,3.73.64,5.83-.84-1.33-1.77-2.44-2.83-3.56l-1.55-1.64c1.02,2.82,1.47,5.59,1.49,8.58.02,3.52-.35,6.92-1.66,10.3-.54-1.87-1.11-3.67-2.05-5.36.66,4.59.68,9.08-.3,13.56l-.93,4.27-2.34-5.05.36,4.85.55,8.51c-1.3-1.05-2.03-2.39-3.04-3.62.61,4.69.35,9.17-.55,13.74l-1.24-4.41-.04,4.12-.71,12.47c-.14,2.39-.62,4.6-1.53,6.76-1.41,3.33-4.54,5.49-8.05,4.61-.57-1.41-.49-2.81-.45-4.18,0,.13-.03.28.17.36,0-.23.07-.47.22-.58,2.27.95,3.29,1.24,5.06-.55,1.16-1.17,1.84-2.65,2.17-4.29l.4-4.26.2-16.81.17-3.35c.4,1.63.65,3.26,1.57,4.71l-.31-2.75c-.17-4.34.02-8.59.52-12.9l.24-3.29.59,2.09.67-7.85c.31-3.61.44-7.05.14-10.74,1.04,2.01,1.7,4.12,2.18,6.31.84-6.84.69-13.84-2.78-19.79,2.17,1.33,4.34,3.76,5.48,6.24.02-2.67-.6-5.19-1.19-7.82l-1.93-8.55,2.85,4.05c-.26-2.72-.27-5.25.01-7.88l.48-4.46,1.46,4.07c1.19-4.04.54-8.32-1.5-12.19,1.93.97,3.45,2.5,4.69,4.43.43-.98.51-1.9.53-2.9.05-3.06-.29-6.05-1.08-8.93,2.3,1.11,3.95,2.74,5.17,4.94.68-1.98.49-3.81.42-5.71-.02-.44-.18-.88.15-1.24.11.07.21.15.3.24.48.49.85,2.61.98,3.43.33,1.98.5,5.73-.18,7.58-.31.84-.37,1.01-.96.24-.66-1.28-1.37-2.55-2.28-3.66.78,2.51,1.17,5.13,1.13,7.76-.15.35-.26.72-.34,1.11Z" fill="#e2cfbc"/>
                    <path d="M23.2,120.4c.35.45.65.93.89,1.46,5.5,13.53,18.57,21.98,32.65,24.45.24.31.6.89.2,1.16.51.19.3.42,0,.74-.15.15-1.96.91-2.11.5l-.22.41c-3.76,1.83-6.72,5.8-7.21,9.97l-.31.29c-.05-.16,0-.55-.13-.73-2.21-1.57-4.14-3.18-4.71-5.84-.34,1.72-.16,3.23-.2,4.95-.97-1.08-1.77-2.16-2.34-3.44l-1.94-4.35c-.43,2.1-.14,4.11.19,6.26-1.31-1.59-2.49-3.17-3.47-4.95l-1.86-4.61c-.42,2.46-.28,4.95-.11,7.47-1.57-2.48-2.8-4.88-4-7.42-.8-1.69-1.2-3.4-1.76-5.28-1.45,1.5-2.21,3.13-3.2,4.88-.58-2.6-.74-5.29-.34-8.01-1.57.54-2.64,2.36-3.56,3.8.23-2.62.87-4.99,1.6-7.44.23-.76.37-1.45.23-2.25-.2-.1-.43-.15-.59-.3l.07-1.92c-1.33.69-2.36,1.67-3.36,2.77l-1.18,1.3c.41-3.12,1.52-5.89,2.81-8.85l-2.07.98c-.19.09-.37.08-.56,0l1.08-1.54c-2.36.94-4.81,1.15-6.98-.31,2.64-.91,4.47-3.74,5.99-6.16.67-1.07,1.39-1.93,2.36-2.78-1.97.68-4.45.89-6.12-.12,1.55-.71,2.64-1.73,3.8-2.83.33.2.42.48.59.73l.85-2.44c-.33-.54.91-2.5,1.33-1.42.28,3.87,1.89,7.33,3.83,10.56l-.18.31Z" fill="#e2d0bd"/>
                    <path d="M107.73,141.77l-.72-3.48-1.61-3.96c-.57,2.57-1.55,4.72-2.82,6.9l-2.63,4.51c.2-2.03.65-3.82.28-5.87l-7.3,13.95-.22-7.31c-2.59,4.24-6.19,8.14-10.02,11.48l1.32-6.82-3.69,4.04-3.82,4.68.85-4.92-2.96,3.34c-.51.57-1.2,1.1-1.46,1.82-.24.66.17,1.7-.21,2.09l-.3-.13c.59-6.08-3.11-11.78-8.97-13.7l-.36-.43c-.12-.02-.28-.09-.26-.17.26-1.23.46-1.44,1.79-1.38.26.23.61.31,1.07.25,4.42-.41,8.77-1.39,13.04-2.81.21-.07.5.22.65.28l3.53-1.18c.48-.16.61-.6.94-.88.55-.48,1.26-.63,1.92-.97,4.98-2.55,9.57-5.65,13.83-9.28,4.53-3.86,8.83-9.32,11.4-14.59,0-.01.09,0,.13.02.05.04.01.13.01.2l.02,2.65c.02,2.84-.31,5.52-1,8.27l-2.11,8.4c-.42,1.68-.48,3.34-.32,5Z" fill="#e2d0bd"/>
                    <path d="M78.62,183.26c-.52,1.34-.67,3.04-.73,4.54-.18,4.2.75,8.16,2.69,11.81l.15-1.06c.12-.36.21-.52.56-.26l.31.14c.22,2.05.5,4.1.84,6.14l-.27.22c-2.88-.51-5.81-2.29-7.97-4.45l2.42,5.88c-5.59-.95-9.75-3.98-12.31-8.81l1.89,6.92-3.41-1.88-.31.16-5.75-3.6c-4.08-2.82-7.39-6.59-9.73-10.96.48,1.82,1.05,3.63,1.7,5.41.06.4-.14.46-.49.52-.16.03-2.28-1.65-2.53-1.88v-.37c.14-.23.13-.47.05-.75l-1.46-5.01c-.62-2.13-.55-4.33-.51-6.53l3.11,6.05c1.73,3.36,6.05,7.57,9.4,9.37l1.74,1.16c-1.21-2.35-1.63-4.87-.96-7.48.85,2.17,1.78,4.07,3.44,5.55l2.02,1.55c-.35-1.85-.76-3.51-.64-5.33.15-2.27.92-4.37,1.92-6.37.23,2.44.51,4.64,1.18,6.85l.67-4.95c.63-2.8,2-5.89,4.18-7.76l-.98,3.44c-.43,1.5-.25,3.06.32,4.51l1.09,2.39,1.4-3.95c1.02-2.15,2.37-4.04,4.03-5.79l-.94,2.58c-.49,1.32-1.06,2.53-1.31,4l2.49-2.53,4.49-4.46c-.81,1.71-1.45,3.26-1.84,4.99Z" fill="#e2cfbd"/>
                    <path d="M126.71,60.34c-2.34-1.11-4.58-2.33-6.49-4.13-1.68-1.59-3.15-3.32-4.3-5.32l-3.4-5.94c1.83.5,3.62.61,5.45-.02-1.55-.62-2.99-.96-4.13-2.11,1.8-.55,3.45-1.1,4.97-2.05-1.71-.6-3.28-.75-4.94-.75,1.63-1.21,3.46-1.69,5.32-1.76-1.51-.84-3.01-1.15-4.75-1.3.18-.24.52-.19.76-.26,1.22-.37,2.32-.18,3.52.1,3.04.72,5.5,2.54,7.11,5.25,3.21,5.41,4.58,11.38,8.15,16.65-2.11,1.6-5.06,2.69-7.27,1.64Z" fill="#060706"/>
                    <path d="M45.77,21.79c.05-.17-.06-.31-.34-.4-3.6-3.48-8.19-5.77-13.31-5.3-.17-.03-.3-.08-.33-.16-.15-.49,2.03-1.19,2.55-1.33-2.86.49-5.57,1.84-7.7,3.81-2.01,1.86-3.81,3.91-5.52,6.04l-.75.45-2.9,3.13c-3.51,3.79-13.02,9.54-15.38,3.92-.69-1.64-.91-4.15-.69-5.86v1.91c2.15,3.06,4.87,3.61,8.31,2,3.02-1.42,5.54-3.54,7.79-6.01l3.83-4.74c1.55-1.91,3.07-3.67,4.91-5.33,2.96-2.67,6.83-3.83,10.9-3.72l-2.19-1.14c6.32.19,9.46,3.44,13.44,8.08-2.28-1.02-4.61-2.22-7.04-1.86,3.89,1.18,6.54,4.97,8.65,8.32-1.08-.59-1.94-1.52-3.16-1.7-.39-.06-.73,0-1.07-.1Z" fill="#e2cfbd"/>
                    <path d="M111.17,114.11c-.33,2.01-3.2,6.81-4.73,8.87-4.52,6.08-9.54,10.3-15.9,14.33-2.49,1.58-4.99,2.85-7.82,4.07l-1.56-7.73-.03-.35c1.81-.98,3.25-2.31,4.34-3.99.45-.24.53.13.55.55-.19.85-.48,1.68-.87,2.47,3.52-1.48,6.73-3.81,8.67-7.18,1.05-.08.34,1.32,0,1.88,3.68-2.17,6.57-5.34,9.01-8.75.28-.25.44-.12.61.18l-.58,3.19c3.47-2.3,6.14-5.55,8.01-9.25.66-.78.71.17.7.72,0,.4-.06.77-.41.99Z" fill="#147380"/>
                    <path d="M17.34,61.15c.95-1.04,1.53-2.36,2.3-3.61,1.16-1.94,2.57-3.59,4.72-4.61-2.92-.19-5.87.26-8.67,1.26,1.46-4.06,4.47-7.18,8.2-8.81l3.61-1.03c1.37-.16,2.66-.14,4.04-.04l4.28.33c-1.66.97-3.42,1.41-5.24,2.04,1.55.25,2.92.04,4.45-.11-.88,1.11-1.83,2-2.83,2.94l-2.32,2.19c-.83.78-1.61,1.53-2.57,2.21,2.78.11,5.23-.85,7.7-2.13l-2.69,3.57c-1.68,1.85-3.52,3.45-5.98,4.36.76-1.19,1.63-2.08,2.15-3.39-3.2,2.08-6.95,3.49-10.56,4.78-.18.07-.39.37-.59.06Z" fill="#fbf4e9"/>
                    <path d="M77.84,135.25l1.48,7.34c-4.43,1.65-8.93,2.74-13.5,3.07-.53.03-.92.16-1.17.38-.68.17-1.13.05-1.35-.34.18-2.41-.26-4.78-2.93-5.41-.28-1.17-.5-3.26.96-3.63,1.14-.28,1.28.7.42.52,0,.39-.2.79-.59,1.2,2.97.12,6.24-1.03,8.93-2.4.88-.11.64.67.24,1.2.69.33,5.8-1.49,6.83-1.95l.69.03Z" fill="#15737f"/>
                    <path d="M37.09,129.46l.4-.05c-.07-.6.05-1,.35-1.19,1.71,2.74,4.08,4.93,7.06,6.38.04-.3-.09-.47-.13-.64l-.04-.78c-.23-.69-.1-.98.41-.85l1.4,1.36c.19-.04.35-.01.49.09,1.51,1.65,3.21,3.11,5.26,4.17l-.29-.69c-.63-2.16-.84-4.44-.72-6.81l1.13,3.83c.54,1.26,1.41,2.3,2.61,2.94l1.03-.32c.81-.15,1.63-.34,2.45-.55l.26.26c.09.32.03.68-.19,1.09-.16.75-.2,1.51-.14,2.28,0,.22-.18.28-.4.29l-.31-.15c.02-.52-.03-1.02-.13-1.48-1.44.04-2.87-.31-4.1-1.08.18.67.28,1.32.29,1.96-.15.33-.5.34-1.06.01-2.32-.98-4.29-2.6-6.11-4.3.23.33.34.66-.05.85-1.55.75-5.94-2.75-7.01-3.86-.13,1.72-.2,3.43-.2,5.14l-.31.21c-.18.19-.2.53-.04,1.02-.23.61-2.23-.89-2.42-1.24.03-2.01.12-4.02.27-6.04l-.35-.07c-.31-.11-.41-.44-.32-1-2.8-1.9-5.87-4.5-7.71-7.67l.58,2.72c-.06.43-.1.61-.53.5-.86-.21-2.55-1.84-3.05-2.64.1.14.05.14-.13,0l-.34.04c-.64-.92-1.25-1.85-1.81-2.78l-.55-1.05c-1.95-3.04-3.15-6.41-3.43-10.12l-1.01,1.72c-.19-.02-.41-.23-.36-.47l.37-1.63c.47-1.42,1.49-2.68,2.44-3.98-1.4,4.61.49,10.69,3.08,14.59,1.06,1.59,2.36,2.86,3.72,4.19-.71-3.34-1.07-6.55-.36-9.77l.73,4.36c.63,1.86,1.43,3.62,2.61,5.21,1.82,2.46,4.13,4.42,6.65,6.01Z" fill="#060706"/>
                    <path d="M45.71,191.72l2.81,2.08c-.84-2.61-1.85-5-2.18-7.82,2.4,5.22,5.9,9.52,10.58,12.77l5.89,3.68c-.24.19-.45.39-.61.68-4.81-2.5-9.8-6.08-13.07-10.61.25,1.34.87,2.36,1.47,3.52-7.25-3.48-13.39-10.57-16.36-17.92-.62-.79-1.43-2.1-.89-2.98-.3-1.13-.47-2.23-.51-3.33l.22-.03c.64,2.38,1.41,4.69,2.5,7,2.4,5.07,5.88,9.41,10.15,12.94Z" fill="#2e2927"/>
                    <path d="M34.75,256.8c-.32,1.51-.12,3.08.39,4.64-3.15.69-8.6.87-9.11-2.32-.21-1.33-.1-2.65.19-3.89,0,.28.16.42.37.62.92.87,1.96,1.56,3.2,1.9,1.91.29,3.28-.45,4.96-.96Z" fill="#e1cebb"/>
                    <path d="M91.07,265.77c-.17,1.39-.02,2.76.29,4.19-2.12,1.1-4.37,1.74-6.73,1.5-.82-.08-1.93-.37-2.24-1.17-.55-1.42-.4-2.96-.26-4.37.02.11-.02.44.12.56,1.54.94,3.39,1.38,5.2.96,1.27-.3,2.15-1.3,3.03-2.32l.36,1.17c.09-.26.1-.41.21-.53Z" fill="#e0ceba"/>
                    <path d="M74.78,263.37c.33,2.36,2.36,3.26,4.73,3.41.32-.41.48-.83.58-1.31.58-2.83,1.69-5.41,3.32-7.79.19-.28.35-.42.59-.59-2.12,3.82-4.02,9.39-2.45,13.73-1.05.04-2.02.1-3.06-.14-3.7-.86-4.22-3.78-3.71-7.31Z" fill="#e2d0bc"/>
                    <path d="M78.42,134.95c.58-.51,1.47-.8,2.13-1.18l1.82,8.63c-.87.35-1.58.65-2.39.76l-1.55-8.2Z" fill="#40403f"/>
                    <path d="M30.81,246.69c-3.88,2.56-6.76,8.71-5.55,13.47-3.41-.6-4.49-3.54-3.86-6.89.57,1.38,1.62,2.69,2.75,2.28.3-.11.66-.45.78-.9.81-2.87,2.38-5.51,4.71-7.41.38-.31.78-.48,1.17-.55Z" fill="#e0cfbc"/>
                    <path d="M71.73,262.05c.56.32.55,1.32,1.52,1.87l1.54-4.63c.43-1.3,1.25-2.47,2.31-3.24-2.37,3.16-3.92,7.99-3.11,12.01-2.51-1.03-2.63-3.59-2.26-6.01Z" fill="#e1d1c2"/>
                    <path d="M83.27,204.9c-.39.13-.74-.06-1.09-.12l-.75-4.98-.14-1.51c-.14-.01-.31-.08-.31-.21,0-.63.08-2.03.77-2.09l1.51,8.92Z" fill="#4d433c"/>
                    <path d="M33.35,175.14c.09,1.01.5,2.02.89,2.98-.14-.05-.31-.15-.43-.3l-2.05-2.75c-.51-.68-.68-1.53-1.01-2.32-.09-.03-.16.06-.15.14l-.38-1.21c-.63,0-.4-1,.17-.66l2.66,4.6c-.56-1.89-.98-3.62-.92-5.47.32-.21.47.09.45.92.25,1.35.51,2.7.77,4.06Z" fill="#827363"/>
                    <path d="M30.39,171.02c-.33.16-.24.43-.17.66l-.66.12c-.12.02-.23.06-.28.11-.04.05-.04.18-.05.24-.43-2.05-.68-4.15-.66-6.37.52,1.81.89,3.64,1.82,5.24Z" fill="#453e38"/>
                    <path d="M116.68,193.61c.4.75.73,1.56.88,2.4-.16.2-.09.5-.48.68-.19-.26-.56-.53-.78-.7l-.85-2.22c-.14-.89.74-.78,1.23-.16Z" fill="#060706"/>
                    <path d="M72.71,162.63c.18,3.66-.93,7.22-3.23,10.17l-4.1,4.47c-2.07,2.05-3.65,4.43-4.47,7.25l-.41,2.41c-1.21-2.51-2.33-5-4.16-7.13l-3.83-3.84c-3.86-3.88-5.86-8.04-5.86-13.6,0-.38.06-.64.43-.72l.36.47c2.16,14.44,21.7,15.17,24.88.94l.38-.41Z" fill="#e2cfbd"/>
                    <path d="M72.73,162.21l-.02.42c-.85,5.03-4.46,9.28-9.49,10.65-4.14,1.13-8.34,0-11.62-2.75-2.67-2.24-4.17-5.5-4.51-8.9v-2.25c0-3.67,3.63-9.11,7.73-10.67-.02.26.04.56.42.58l-.31.48c-8.2,3.92-9.17,15.43-1.7,20.64l.25.53h.58c14.94,7.73,25.12-14.05,10.44-21.3-.76-.21-1.37-.55-1.82-1.02l.42-.66c5.3,1.55,9.28,6.22,9.65,11.83l-.02,2.43Z" fill="#161817"/>
                    <path d="M78.62,183.26c-1.04,4.64-.4,10.76,1.86,15.12.39-1.86.45-3.53,1.2-5.26l.08,2.87c-.29.44-.52,1.67-.46,2.3-.11.03-.25.14-.27.32l-.25,2.12-1.11-2.33c-2.24-4.71-2.71-9.99-1.25-15.02-.1-.15.07-.35.19-.12Z" fill="#7e6f60"/>
                    <path d="M33.06,171.79c-.34.9.16,1.86.29,3.35l-.77-3.19c-.1-.46-.45-.77-.27-1.37.04-.14-.05-.4-.18-.42.04-1.27-.23-2.55.1-3.91.12,1.87.35,3.73.83,5.54Z" fill="#7f6f61"/>
                    <path d="M117.45,172.85c.06.15,0,.36.2.5l.08-1.31c.48.08.48.4.73.48-.08,1.69-.3,3.4-.87,5.07-.16.48-.35.94-.86,1.23l-.82-2.36c-.18-.03-.33.25-.29.43.41,1.87.33,3.65.05,5.54-.16,1.1-.66,2.26-.57,3.35.22,1.02,1.05,1.97,1.64,2.72,1.01,1.27,2.06,2.42,3.51,3.53-1.34.6-2.74.45-4.31.29.4.36.51.88.74,1.31-.1.34-.36-.21-.7-.21-.17,0-.36.26-.53.38l-2.3-3.71c-.21-.35-.15-.4.22-.22,1.32.75,2.65,1.45,4.37,1.74-2.27-2.55-4-5.32-5.04-8.45-.18-.65.18-1.04.68-.5l.82,1.72.63-4.11c.15-1.11.14-2.35,0-3.46,0-1.78-.48-3.44-.92-5.32,1.33,1.49,2.06,3.16,2.98,4.82.39-1.25.51-2.34.58-3.43Z" fill="#060706"/>
                    <path d="M32.75,41.28c-.05-.05-.16-.15-.3-.16-2.04-.15-3.84-1.26-4.97-2.91l3.05-.1c-1.33-1.01-2.26-2.25-3.14-3.8l3.12.37c-.71-.87-1.33-1.66-1.97-2.61-1.12-.32-2.5-.68-3.08-1.84-1.12-2.26-1.66-4.73-2.24-7.16l1.04-1.22c.95-1.12,1.94-2.15,3.05-3.11s2.21-1.63,3.66-1.93c3.27-.68,6.63-.13,9.52,1.55l3.08,2.14c-2.31-.05-4.61-.02-7,.13.64.95,1.51,1.41,2.22,2.14,1.88,1.93,3.82,3.61,6.39,4.87-2.77.52-5.98-.46-8.72-1.51,1.29,2.6,3.22,4.61,5.72,6.35-3.25.44-6.38-.19-9.38-1.75,1.28,2.59,3.48,4.41,6.18,5.51-1.82,1.22-3.39,2.59-5.04,4l-1.2,1.03Z" fill="#f39c88"/>
                    <path d="M47.01,133.78c-.07.08-.43.38-.55.27l-1.67-1.62c.16.56.16,1.05-.04,1.53-.67-2.19-1.46-4.38-1.41-6.88.92,2.48,1.91,4.79,3.66,6.7Z" fill="#060706"/>
                    <path d="M37.83,128.22l-.02.99c0,.21-.07.47-.31.49-.17.01-.29-.16-.41-.24-1.1-2.19-1.79-4.63-1.9-7.15.84,2.14,1.52,4.1,2.64,5.9Z" fill="#060706"/>
                    <path d="M113.36,182.63c-.18.01-.34.03-.48.1s-.2.24-.2.4c-.33-.98-.63-1.99-.66-3.05l1.34,2.55Z" fill="#262626"/>
                    <path d="M114.81,180.24v-3.46c.12.02.17.13.17.29v2.88c0,.17-.06.28-.17.29Z" fill="#262626"/>
                    <path d="M113.36,189.84l-.22.22c-.18-.29-.48-.53-.58-.92.41.13.54.55.8.71Z" fill="#262626"/>
                    <path d="M25.35,123.14c.31.24.57.53.78.87,2.39,4.72,5.7,8.79,9.85,12.07l.2-4.64.31-.21c.24-.25.15-.65.14-1.12.05-.12.37,0,.45.12.08.12.1.21.09.42l-.37,6.55,1.92,1.39.09-2.43.21,1.39c.25.15.4.46.46.91l.19.28c4.81,2.96,10.2,5.31,15.99,6.33l.81.47c.06-.61.12-1.22.16-1.85-.13-.04-.14-.09-.01-.16.08-.06.31-.18.38-.11.11.1.11.31.08.43.05.64.1,1.3.15,1.98.15-.01.15.09,0,.31.47-.05.74,1.08.34,1.29l-.64.04-.33-.93c-10.79-1.89-20.78-7.06-27.65-15.74-2.5-3.16-4.38-6.71-5.76-10.4.04-.1.12-.15.14-.12l.19.28,1.82,2.58Z" fill="#080909"/>
                    <path d="M58.02,140.27l-.37.7c-.61.75-1.1,1.68-1.03,2.57v.16c-.04.62-.09,1.23-.14,1.85-3.78-.73-7.52-1.73-11.1-3.35l-5.4-2.86c-.74-.39-.96-.99-.94-1.78l.08-3.74.16-2.23,1.16.99c.93.79,1.78,1.63,2.87,2.23,1.02.57,2.07,1.09,3.31,1.01-.43-.74-.88-1.28-1.05-2.07,2.37,2.4,4.84,4.66,8.04,5.81l-.58-2.69c1.5,1.16,3.11,1.57,4.93,1.46l.07,1.95Z" fill="#14737f"/>
                    <path d="M36.5,131.24l-.24,5.51c-2.63-2.22-4.98-4.39-6.95-7.03-1.57-2.1-2.77-4.33-3.95-6.57.04-.14.13-.17.2-.09.94,1.06,2.06,1.82,3.25,2.59-.19-1.43-.78-2.71-.68-4.27,1.29,2.3,2.74,4.23,4.69,5.87,1.2,1,2.3,2.01,3.67,2.8l.02,1.2Z" fill="#177480"/>
                    <path d="M57.24,145.83c-.09-.04-.15-.15-.15-.31v-1.67s.15,0,.15,0v1.98Z" fill="#b3aa9f"/>
                    <path d="M32.75,41.28l.05.34-1.27.99c3.61.23,6.59-.36,9.89-1.75.16-.07.31-.1.48,0,0,.24-.16.38-.34.56l-1.96,1.97-3.98,5.02c-.67.85-1.38,1.45-2.2,2.23,2.02-.57,3.64-1.55,5.33-2.7-2.13,3.86-2.5,7.11-5.52,10.7-1.37,1.63-2.81,2.97-4.76,4.11,2-.25,3.71-1.19,5.59-1.92,0,.4-.06.79-.21,1.15l-2.78,6.22c-.44.99-1.14,1.78-1.33,2.98,1.36-1.36,2.45-2.8,4.21-3.6-2.51,3.97-4.12,8.93-2.37,13.13.68-1.63,1.61-2.98,2.91-4.06l-.42,2.11c-.51,2.57-.35,5.18.63,7.71.37-1.49.69-2.89,1.73-4.18-.19,3.61,1.08,6.86,3.49,9.59,2.2,1.75,3.87,3.95,4.81,6.63-.63-.35-1.18-.87-1.64-1.55,2.96,3.84,5.36,8.19,5.95,13.05,2.67,10.6,17.39,14.41,24.75,6.12,1.72-2.54,3.7-4.86,5.92-6.94l5.8-4.41-.43-.12c.67-1.17,1.73-2,2.84-2.86l4.65-3.61c1.39-1.08,2.3-2.5,2.97-4.2.5,1.42.24,2.74-.27,3.99,2.52-2.4,3.8-5.46,4.38-8.91.76,1.64.98,3.4.91,5.2,2.69-3.53,3.44-7.83,2.86-12.08,1.33,1.97,2,4,2.68,6.27.68-1.38,1.13-2.76,1.21-4.26l.35-6.46c.05-1,.27-1.92.61-2.92l.92,5.04c.26,1.45.43,2.84.22,4.3-.27,1.87-.24,3.71.37,5.48l1.27,3.67c-1.74-.71-3.2-1.64-4.45-3.18-.45,2.97-.51,5.86-.34,9.01-1.51-.92-2.83-1.9-3.92-3.29l-.77,3.05-1.63,7.02c-.94-1.86-2.35-3.07-4.09-4.02l-3.27,9.37c-.46-1.72-1.15-3.35-2.74-4.37-2.42,3.42-2.69,7.39-4.91,10.71.08-2.13-.24-4.21-1.67-5.73-.75,3.83-2.68,6.85-4.96,9.74.09-1.48.08-2.82-.25-4.15-.38,1.4-.84,2.57-1.62,3.64l-3.24,4.42c-1.32,1.81-2.66,3.48-3.67,5.57l3.85-1.78c2.47-1.14,4.59-2.66,6.59-4.62-.64,2.72-2.01,4.98-3.64,7.12-.89,1.17-1.84,2.59-1.67,3.84,0,.12,0,.3-.09.33-.36.13-3.15.93-3.31.86-.35-.15-.56-.26-.32-.61.89-.87,1.67-1.86,2.3-2.94-2.69,2.18-6.26,4.34-9.8,4.58-.1,0-.21-.02-.32-.06-.12-.04-.22-.1-.33-.17-.37-.53.57-1.61,1.07-1.89.25-.82.53-1.66.85-2.5-2.77,1.73-5.67,2.95-8.68,3.63-.22.79-1.16.62-1.81.19-1.58-1.03-2.24-2.84-2.66-4.56.01,1.36.22,2.71.54,4.03l-.12.69c-.1.24-.29.23-.56-.05-.26-.64-.47-1.3-.63-1.99-1.75-3.09-2.44-6.37-2.43-9.89-1.52-2.9-2.8-5.78-2.91-9.19-.54,1.6-.79,3.26-.75,4.98-.1.3-.22.29-.46.12-.55-.38-1.32-3.36-1.5-4.17-.65-2.9-.99-6.28.43-8.99,0-.34-.15-.38-.48-.35-1.95.17-3.77,3.33-4.3,5-.23.24-.41.12-.64-.08-.14-.12.14-3.49.18-3.78.44-2.64,1.34-4.75,3.37-6.58-1.96-1.15-4.08-.64-5.71.8-.39.03-.54.02-.59-.39-.04-.36.38-1.47.54-1.9.59-1.53,1.53-2.71,2.59-3.9-2.02-1.43-4.38-.31-6.31.76-.43.1-.61.12-.65-.32-.11-1.28,1.9-4.32,2.88-5.24-1-.86-2.57-.93-3.83-.59l-2.76.91c-.28-.15-.29-.22-.33-.53-.04-.33,3.22-5.11,3.67-5.52-1.55-.61-3.11-.79-4.69-.54-.79.27-1.56.42-2.31.44.16-.8.61-1.53,1.35-2.17,1.57-1.36,2.82-2.92,3.76-4.67-2.4.39-4.85.73-7.35,1.03-.92-.02-1.03-.08-.4-.83,2.32-2.35,4.25-4.96,5.8-7.84-1.7.56-3.46.94-5.23,1.21-.42,0-.46-.22-.41-.59,2.27-2.09,4.38-4.38,6.38-6.75.22-.26,1.72-2.06,1.74-2.2.01-.13-2.36.43-2.58.56-2.64,1.49-5.39,2.72-8.24,3.68-.33-.04-.62-.11-.36-.4,2.1-1.37,4.23-2.65,6.25-4.36-3.54,1.44-6.44,2.11-9.98.42.98-.65,1.99-1.33,2.79-2.2.24-.07.53-.23.85-.47,3.4-1.21,6.78-2.52,9.86-4.43.55-.19.57-.06.58.51l-1.36,2.14c2.88-1.19,4.95-3.81,6.71-6.26-1.38.61-5.17,2.07-6.53,1.5-.33-.14-.42-.23-.16-.51,2.42-2.12,4.76-4.34,7-6.65-1.27.2-2.48.17-3.64-.1-.29-.15-.28-.32,0-.5,1.37-.44,2.72-.95,4.03-1.52-3.57-.37-7.11-.59-10.51.75l-.29-.23-1.85-.44c-2-.59-3.98-.9-6.04-.7,2.19-2.35,4.55-3.64,7.77-3.59-2.41-.87-4.24-2.56-6.71-3.49,1.98-1.27,4.09-1.82,6.42-1.43-.92-.85-1.73-1.63-2.29-2.72l-1.08-2.11c1.72.37,3.16,1.13,4.83,1.68-.8-.69-1.65-1.21-2.28-2.08-.91-1.25-1.37-2.74-1.5-4.21-.06-.46-.06-.93.14-1.33s1.23-1.62,1.58-1.9l.38.02.43.51c.4,1.85.92,3.66,1.59,5.43.75,1.99,1.56,2.26,3.47,2.83.25.26,1.81,2.27,1.88,2.47.12.34.04.47-.26.64-.81-.13-1.59-.2-2.35-.22l1.78,2.31c.85.58,1.04,1.03.59,1.36l-2.21.07c.93,1.47,2.84,2.2,4.58,2.41.09.03.06.25.01.38Z" fill="#e2d0bc"/>
                    <path d="M56.48,145.54v-1.55c0-.16.07-.26.16-.3v1.67c.01.1-.09.17-.16.17Z" fill="#161817"/>
                    <g>
                      <path d="M94.5,30.54c2.89,0,5.71-.56,8.21-2.08.36-.15.41-.05.45.3.11,1.14-2.16,3.89-3.29,4.49,2.39.3,4.62.98,6.74,2.2.84.49,2.95,1.81,3.37,2.57.2.36.21.48-.23.55-1.51.09-2.99.32-4.45.68l3.69,2.2c.11.78-.71.56-1.2.35,1.62,1.9,3.17,3.75,4.35,6.07.41.81,1.42,2.84,1.44,3.62.02.45-.09.52-.51.54l-4.16-2.79c1.96,3.1,3.42,6.44,4.38,10,.03.4-.19.44-.56.41l-1.45-1.56c.77,2.75,1.33,5.57,1.5,8.42-.09.68-.25.58-.76.11-.51-1.11-1.07-2.19-1.68-3.24.49,4.06.93,8.13,1.32,12.21.37,3.07,2.32,5.66,4.87,7.33l-.7-1.44c.08-.25.3-.29.55-.29l6.58,7.97-.1.42c-.84-.52-1.73-.94-2.7-1.26l-2.06-.67c4.06,4.41,5.16,9.78,3.14,15.38-.9-2.22-2.23-4.05-3.94-5.66l.46,2.22c1.01,4.87-2.32,11.57-5.99,15.04-.12.11-.22.07-.23-.07-.02-.63.01-1.27.1-1.93l.2-.17.03-1.77-.23-.3c-.01-2.06-.09-2.26-.24-.61,0,.64-.22,1.07-.63,1.3.02.11.04.22.04.33-.05,1.53-1.95,4.29-2.96,5.52-.76.93-3.02,3.34-4.01,3.72-.41.15-.48.07-.69-.26-.12-.18.55-3.82.9-4.22-.25-.34-.31-.78-.17-1.31-.16,1.12-.59,2.06-1.27,2.82l.06.53c-.54,1.4-2.55,3.56-3.67,4.63-.8.77-3.09,2.84-4,3.16-.74.26-.77.22-.69-.59l.6-2.26c-1.02,2.4-2.72,4.54-4.75,6.2-.76.62-2.99,2.29-3.8,2.47-.14.03-.29.04-.43.02-.41-.07.18-1.92.7-1.78.25-1.33.54-2.66.87-3.99l-.59,1.32-.36.07c-.23,1.4-1.77,2.77-2.87,3.72-2.41,2.11-5.44,3.69-8.48,4.65l-.53-.17c-.13-.03-.24-.1-.32-.21-.25-.37.69-2.42,1.04-2.82,1.74-2.11,3.07-4.43,4.01-6.96-1.24,1.16-2.63,2.1-4.07,2.98-.3.19-5.17,2.69-5.47,2.63-.39-.07-.61-.12-.47-.55l.7-1.29c2.12-3.06,4.27-6.05,6.43-8.99.52-.94.95-1.92,1.3-2.94.09-.12.17-.2.25-.2.58.02.62,2.61.6,3.17.02.05.08.07.12.04.77-.67,2.08-3.06,2.59-4.07.7-1.4,1.23-2.86,1.58-4.39.07-.18.14-.33.23-.34.57-.09,1.16,1.09,1.38,1.57.44.96.61,2.02.67,3.07.93-1.68,1.69-3.53,2.31-5.56.5-1.56,1.25-2.94,2.25-4.14,1.52.53,2.31,2.19,2.83,3.62l2.9-8.31c.19-.28.29-.34.62-.25,1.24.34,2.93,2.29,3.71,3.31l2.16-9.06c.22-.28.41-.42.69-.16.31.35.62.71.96,1.03.57.53,1.48,1.34,2.16,1.66.03.01.09-.08.1-.21-.1-2.62-.06-5.26.35-7.86.11-.63.37-.5.85-.17.94,1.02,2.1,1.96,3.4,2.4-1.18-3.01-2.03-6.04-1.32-9.4-.13-2.43-.46-4.8-.99-7.13-.31,2.99-.54,5.98-.68,8.99-.17.83-.57,2.78-1.16,3.3-.27.24-.38.28-.55-.07-.5-1.67-1.15-3.27-1.95-4.81.26,3.76-.6,7.69-2.96,10.7-.4.36-.51.07-.63-.44,0-1.22-.09-2.47-.53-3.61-.48,2.19-1.3,4.32-2.63,6.13-.27.37-1.5,2-1.82,1.77-.09-.07-.16-.34-.19-.5.32-.85.5-1.76.37-2.67-.51,1.09-1.18,2.1-2.05,2.93-2.83,2.17-5.61,4.43-8.33,6.79l-.14.41c-4.05,2.29-8.2,5.01-10.37,9.27-6.93,9.61-22.02,6.64-25.1-4.61-.34-4.26-2.41-7.7-4.86-10.86l.12-.35c-.97-1.87-2.16-3.58-3.57-5.12-3.08-2.47-4.96-6.14-5.05-10.1-.52.91-.8,1.93-1.04,2.94-.28.36-.46.55-.72.13-1.11-2.81-1.05-5.86-.37-8.74-.89.85-1.6,1.87-2.13,3.06-.2.3-.32.25-.55,0-.35-.38-.55-1.51-.64-2.07-.57-3.5.7-7.13,2.4-10.15-1.1.86-2.12,1.81-3.07,2.85-.78.09-.45-.84-.2-1.36,1.47-2.78,2.76-5.7,3.91-8.61-1.55.72-3.15,1.26-4.78,1.62-.52-.03-.77-.11-.44-.52,5.15-3.05,7.31-8.25,9.42-13.53-1.23.76-2.53,1.39-3.9,1.87-.73.19-.82.03-.51-.62,2.12-2.2,4.08-4.52,5.87-6.97.8-.82,1.64-1.6,2.52-2.33l-.04-.21c-1.38.73-2.93,1.12-4.46,1.39-.95.17-3.1.53-3.93.35-.49-.11-.49-.2-.42-.64.08-.48,7.08-5.77,7.84-5.81-1.22-.05-2.37-.39-3.43-1-.61-.35-2.5-1.63-2.31-2.33.02-.06.18-.08.38-.08,2.96.77,6.05.72,9.04.25-2.15-.72-4.51-2.25-5.8-4.14-.32-.47-.73-1.07-.02-1.08,3.19.99,6.51.79,9.73.2l-2.5-.48c-2.8-1.25-5.27-3.05-7.42-5.4-.29-.39-.43-.66.06-.79,1.31-.17,6.14-.37,6.95.43.08.08.14.17.2.27.34.08.53,0,.57-.23.95-.02,1.8.42,2.57.96-1.8-2.93-4.18-5.74-7.49-6.96-.28-.19-.23-.29.01-.48.93-.74,4.65.61,5.72,1.15-2.62-3.3-6.21-6.36-10.6-6.76.72.38.83.72.33,1.01-6.4-.29-11.11,3.44-14.82,8.35l-4.33,5.34c-3.19,3.49-10.18,9.57-14.93,5.78-1.53-1.22-1.56-2.08-1.39-3.86.29-3.83,1.6-11.14,3.42-14.33.48-.83,1.33-1.19,2.28-1.21,4.21-.07,8.18-1.2,11.78-3.36.93-.55,1.84-.91,2.76-1.31l-.84-.12c2.12-1.32,4.28-2.55,6.79-3.1,3.8-.83,7.61-.39,11.31.72,3.22.97,6.02,2.46,8.58,4.77-.76-1.87-1.92-3.31-3.13-4.79l-1.43-1.75c7.29,1.62,11.63,6.94,14.43,13.55.75,1.76,1.38,3.43,1.75,5.28l-.02-6.28c2.5,1.92,4.3,4.22,4.53,7.34l.99-3.49c.48-1.69.34-3.36.13-5.17,2.42,2.57,3.01,6.37,2.59,9.69,2.22-2.23,5.14-3.26,8.17-3.11-1.84,1.33-3.3,2.7-4.38,4.68,5.09-1.58,10.28-1.08,14.82,1.68-1.44.24-2.89.44-4.33,1.27l2.91.32c3.04.66,5.91,1.61,8.78,2.79l1.16.36Z" fill="#fbf3e8"/>
                      <g>
                        <path d="M111.83,112.45c.02.7-.09,1.44-.3,2.1-.02-.19-.03-.35.06-.62-.26.04-.3.14-.42.18.1-.6.3-1.23.11-1.87-2.02,4.12-4.9,7.59-8.85,10.05l.78-4.05c-.68,1.13-1.44,2.03-2.28,2.98l-1.36,1.54c-1.83,2.07-4.08,3.69-6.5,5.09l1.09-2.09c.03-.06.02-.23,0-.28s-.1-.06-.15-.06c-.17-.02-.17.12-.24.25-1.11,2-2.69,3.65-4.64,4.83-1.42.86-2.72,1.86-4.44,2.29.33-1.25,1.13-2.18,1.05-3.41-.66,1.04-1.22,1.99-2.17,2.63l-2.41,1.64c-.09-.12-.23-.18-.36-.15-.09.03-.17.21-.25.26l-.06.38-1.7.9-.36-.09c-.09-.02-.21-.07-.3-.04-.17.06-.23.21-.28.34-2.55,1.14-5.3,2.06-8.1,2.29.22-.57.67-.78.71-1.43-1.75,1.05-3.55,1.64-5.48,2.1-1.42.34-2.77.69-4.3.5.24-.61.62-1.14,1.07-1.52.35-.01.7.15,1.05.48,4.6-.46,7.99-2.46,11.48-5.72-.82,1.86-1.95,3.41-3.3,4.68l3.69-.96c4.33-1.12,9.45-4.32,11.87-8.2.31-.39.39-.08.47.3-.15.77-.28,1.54-.39,2.3l-.68,1.63c3.02-1.46,5.56-3.58,7.42-6.28,1.01-1.46,1.51-3.03,2.17-4.74-.06,1.83-.54,3.58-1.1,5.33,3.23-1.96,6.65-5.22,8.17-8.32.4-.47.76-.98,1.08-1.54l.36.02-.62,4.4c3.43-2.33,6.03-5.64,7.34-9.49h.4c.17-.61.4-.82.7-.65l-.03,2.03Z" fill="#060706"/>
                        <path d="M44.75,98.51l2.42,3.39c1.29,2.09,2.11,4.29,2.44,6.73s1.27,4.43,2.83,6.2c2.77,3.15,6.6,4.87,10.82,4.97,5.07.12,9.63-2.65,11.99-7.1,1.53-2.89,6.82-6.49,9.86-8.05l3.29-1.68-8.47,6.44c-1.83,1.57-3.35,3.38-4.69,5.37-1.44,2.13-3.28,3.71-5.6,4.79-3.1,1.45-6.34,1.72-9.66.96-3.02-.69-5.55-2.12-7.74-4.29-2.01-2-3.25-4.36-3.65-7.21s-1.59-5.43-3.01-7.93-3.12-4.48-4.85-6.74c1.56,1.18,2.91,2.57,4.03,4.15Z" fill="#2c2020"/>
                        <path d="M64.25,43.02c-3.65-3.56-7.97-2.43-12.45-.45,2.48-2.64,6.7-4.5,10.07-3.92,1.05.18,1.81.82,2.09,1.82.19.79.42,1.46.3,2.55Z" fill="#272626"/>
                        <path d="M96.95,50.41c-1.96-1.12-4-1.28-6.14-.31.39-.93.99-1.69,1.75-2.34,3.1-2.71,8,3.17,9.04,6.97-1.35-1.7-2.7-3.28-4.64-4.32Z" fill="#262625"/>
                        <path d="M47.2,79.26c-2.31.44-2.37.38-2.58.56-.39.32-.61,1.18-1.03,2.9-.07.28-.12.51-.15.66-.8-1.1-.93-2.52-.32-3.64.07-.13.9-1.61,2.57-1.68,1.37-.06,2.26.88,2.39,1.03-.2.04-.5.1-.87.17Z" fill="#e2d2be"/>
                        <path d="M90.61,92.45c.16.46.08.89.15,1.49.38-.97.15-1.35.15-2.47,0-1.08-.44-2.21-1.39-2.07-.38.06-.76-.44-1.12-.84.25-.1,1.12-.4,2.13-.05.9.31,1.55,1,1.83,1.7.55,1.35-.08,3.15-1.64,4.24.29-.79.1-1.41-.11-2Z" fill="#e4d4c3"/>
                        <path d="M111.83,112.45l-.05-2.03c-.26.59-.44,1.09-.87,1.63.01-.44.11-.76-.14-.97.52-1.52.51-3.14.67-4.83.51,2.03.6,4.15.39,6.2Z" fill="#060706"/>
                        <path d="M86.62,130.06c-.23-.23-.14-.5-.1-.79l.19-1.51c.02-.16-.06-.29-.18-.3l1.35-3.02c.05,1.95-.53,3.85-1.27,5.62Z" fill="#060706"/>
                        <path d="M104.04,116.17l-.93,1.23c-.13.18-.27.29-.5.28.74-1.51.99-3.19,1.5-4.82.15,1.17.09,2.26-.06,3.31Z" fill="#060706"/>
                        <g>
                          <path d="M89.77,89.21c.43-.65,1.06,3.34,1.06,3.34-.13-.36-.12-.7-.67-.89-1.17,2.5-3.11,4.25-4.87,6.27s-3.29,4.13-5.19,6.09-3.5,3.71-5.7,5.14c-.19.82-.31,1.56-.69,2.3-3.36,6.64-12.27,7.54-17.99,2.98-2.86-2.28-4.3-5.71-3.95-9.33.06-.66-.04-1.17-.33-1.75-2.82-5.6-4.04-10.95-5.19-17.06l-1-5.31c-.8.39-1.26,1.02-1.66,1.73l-.26-.27c.19-1.64.85-3.47,2.73-3.66.43-.04,1.17-.06,1.15.47-.26.2-.41.48-.35.85l.6,3.64c.33,2.05,1.04,3.93,2.1,5.71,2.42,4.04,6.31,5.78,11.01,5.39l5.92-.49,1.05-2.6-3.09-2c-1.67-1.08-2.91-2.63-3.88-4.38s-1.21-3.49-1.04-5.41c.36-4.17,3.8-6.5,7.97-6.22,3.67.24,7.19,1.31,10.29,3.27,1.9,1.2,3.23,3.22,3.07,5.51-.25,3.49-2.49,6.29-5.55,7.83-2.25,1.13-4.68,1.54-7.22,1.48l-.74,2.73,4.29,2.74c2.99,1.91,6.31,3,9.64,1.57,3.84-1.66,6.33-4.93,8.21-8.62.17-.34.32-.64.29-1.03Z" fill="#0a0807"/>
                          <g>
                            <path d="M72.35,90.48c-1.37.29-3.04.94-4.35.46-2.83-1.03-6.85-4.74-7.35-7.99,2.34,1.67,4.73,3.16,6.47.72.36-.86.25-1.87-.36-2.49-.66-.67-1.57-1.07-2.52-.71-1.14.44.11,1.24-.38,1.97-.87,1.32-3.17-.43-3.33-1.24-.66-3.36,1.93-6.22,5.29-6.51,2.76-.24,5.38.35,7.96,1.33,1.55.59,3.05,1.24,4.29,2.3,1.9,1.63,2.38,4.04,1.43,6.3-.58,1.39-2.07,2.22-3.51,1.53-.31-.15-.52-.59-.52-.86,0-.78,1.03-.84,1.03-1.51,0-.26-.15-.56-.42-.75-1.09-.77-2.51-.3-3.29.75-.52.7-.67,1.51-.33,2.33.73,1.81,3.19,1.34,5.47,1.08-1.49,1.68-3.31,2.8-5.59,3.28Z" fill="#252525"/>
                            <path d="M73.79,108.05c-.15.4-.41.34-.61.03-.18-.24-.2-.57-.06-.99-.09-.55,0-.94.28-1.15l-.31-.14c-.02-1.08-.35-1.53-1.36-1.9-1.89-.7-5.48-1.33-6.78.58l-.99,2.93c-.35.34-.54.35-.67-.17.18-1.21.25-2.41.21-3.6-1.61-1.89-4.63-3.57-7.15-3.31-1.11.12-1.88.43-1.4,1.66l-.29.21c.09.08.18.2.15.3-.29.82-.36,1.33-.32,2.25l-.31.19c-.89.35-1.43.2-1.42-.82l-2.03-4.58c-1.4-3.65-2.51-7.33-3.09-11.26,1.19,1.88,2.13,3.44,3.7,4.81,2.05,1.79,4.64,2.67,7.4,2.71l6.45-.4c.92-.06,1.68-.06,2.48.45l4.13,2.63c3.36,2.14,7.45,2.88,11.01.71-.4,1.02-1.13,1.68-1.83,2.42l-2.49,2.62-2.2,2.16c-.73.72-1.61,1.28-2.52,1.66Z" fill="#642023"/>
                            <path d="M54.18,104.93l.33.12c.14.89.2,1.8.18,2.72l.42.29c2.31,6.36,11.19,8.29,15.55,2.97l.36.07c.54-.94,1.11-1.87,1.72-2.79l.45-.23c.17-.13.44-.03.61-.03-.19.24-.15.56-.21.91-.23,1.38-.76,2.68-1.65,3.72-2.09,2.47-4.99,3.8-8.23,3.68-6.05-.22-11.25-4.18-11.03-10.35l.09-1.9c.09.21.13.51.29.59.21.09.47.11.82.09.06-.34-.07-.73.17-1.1l.13,1.24Z" fill="#2c2020"/>
                            <path d="M73.4,105.94c-.1.19-.3.27-.62.27l-.26.33c-.34,1.6-.84,3.12-1.51,4.56l-1.73,1.66c-2.14,1.6-4.85,1.95-7.45,1.4-3.43-.72-6.1-3.14-7.15-6.39-.08-1.62.11-3.24.59-4.85l-.08-.31c-.27-.08-.45-.22-.54-.42.02-.4-.4-1.2.08-1.58.83-.66,2.05-.69,3.11-.51,2.23.37,4.27,1.55,5.8,3.21.61.66-.23,3-.1,4.38l1.12-3.32c.58-1.7,4.9-1.93,7.72-.5.91.46.96,1.24,1.01,2.07Z" fill="#c84f4a"/>
                          </g>
                        </g>
                        <g>
                          <path d="M52.9,63.99c-2.88-1.97-3.3-6.26-1.25-9.3,1.23-1.82,3.12-2.69,5.31-2.6,1.52.06,2.66.93,3.79,1.99-1.53-2.67-4.79-3.93-7.74-3.01-3.44,1.07-5.82,4.09-6.19,7.71-1.44-3.66,1.87-7.8,5.41-9.23,4.19-1.69,8.74.53,9.89,4.93,1.01,3.87-.26,8.12-3.07,11.06l1.34-2.61c-1.13,1.09-2.47,1.84-4.05,1.86-1.23.02-2.44-.12-3.45-.81Z" fill="#0c0a07"/>
                          <g>
                            <path d="M59.18,63.23l-.09-.32c.96-.64,1.31-1.34,1.06-2.09-.41-.43-.63-.88-.66-1.35l-.24-.31c.35-1.69-.58-3.62-2.35-3.93l-.32-.1c-.79-2.01-3.45-.66-2.77,1.2l-.18.29c.12.38.06.81-.18,1.31.01.54-.11.96-.36,1.24l-.07.35c-.68.18-1.23.52-1.65,1,.11.27.07.48-.13.61-1.36-1.86-.1-5.71,1.56-7.28,1.43-1.35,3.53-1.85,5.39-1.14,2.01.76,3.33,2.72,3.44,4.82.09,1.74-.19,3.37-1.1,4.8-.34.53-.7.94-1.33.91Z" fill="#51290b"/>
                            <path d="M53.08,59.16l.33.16c.46,2.17,2.66,3.22,4.54,1.92l.37.1c.28-.06.39.25.28.2-.16-.07-.19-.21-.13-.37-.1-.31.02-.65.38-1,.13-.41.34-.64.64-.7.37.54,1.2,1.22,1.11,1.99-.14.68-.94,1.33-1.42,1.78s-1.14.87-1.81,1.07c-2.63.8-5.24-.69-6.14-3.17-.07-.19-.27-.58-.11-.81.48-.66,1.25-.86,1.96-1.16Z" fill="#975216"/>
                            <path d="M59.49,59.46c-.17.64-.59,1.21-1.02,1.7.2.21.12.3-.15.17-1.21.99-3,1.11-4.19-.08-.56-.56-.95-1.36-1.05-2.1-.12-.86.12-1.78.54-2.55l.33-.04c.98,1.01,2.74.3,2.66-1.15l.28-.2c.02-.13.03-.23.08-.33,2.03.49,3.03,2.6,2.51,4.57Z" fill="#030203"/>
                            <path d="M56.9,55.22c.12.89-.34,1.69-1.13,1.99-.73.27-1.71.13-2.15-.6s-.25-1.54.25-2.13,1.1-.76,1.83-.59c.56.13,1.11.62,1.2,1.33Z" fill="#fdfdfc"/>
                            <path d="M58.32,61.34l.15-.17c.07.09.16.13.2.09l.29-.26c.43.03.58.73.27,1.09-.29.33-.58.64-1.01.81-.16.04-.34-.34-.35-.5-.04-.58.68-.71.45-1.06Z" fill="#975216"/>
                          </g>
                        </g>
                        <g>
                          <path d="M96.26,63.29c1.38,2.3,1.2,5.15-.2,7.35-1.08,1.57-2.74,2.66-4.69,2.65-2.4,0-4.34-1.53-5.33-3.63l.17,2.19c-1.84-4.08-.46-9.83,3.14-12.43,2.46-1.77,5.66-1.62,8.05.22,2.1,1.61,3.18,3.98,3.43,6.62.18,1.86-.27,3.65-1.66,4.98,1.42-3.61.4-7.64-2.6-10.02-1.93-1.53-4.48-1.75-6.6-.52,2.54-.51,4.92.31,6.28,2.58Z" fill="#080809"/>
                          <g>
                            <path d="M96.36,69.21c-.26,0-.15-.2-.05-.39-.27,0-1.69-.99-1.75-1.11l-.06-.41-.28-.26c.09-1.59-.81-3.19-2.5-3.39l-.22-.32h-.34c-1-1.39-3.16-.18-2.47,1.42l-.19.3.14.36-.35,1.19c.05.57-.03,1.03-.24,1.38-.28.35-.61.67-.99.97l-.35-.09c.01.3.01.5-.34.4-.97-3.2.74-8.01,4.7-8.35,1.6-.14,3.17.5,4.26,1.74,1.58,1.8,1.92,4.38,1.04,6.57Z" fill="#0c629c"/>
                            <path d="M96.32,68.81l.05.39c-1.17,2.9-4.18,4.71-7.11,3.24-1.33-.67-2.43-1.71-2.89-3.21.01-.19.18-.26.34-.4l.36.18c1.64,4.45,7.29,4.06,8.87-.26l.38.05Z" fill="#3388bf"/>
                            <path d="M94.5,67.29c.44.4.07,1.11-.18,1.57-1.27,2.36-4.23,2.86-5.89.62-.28-.38-.85-1.2-.39-1.52-.25-.99-.03-2.01.45-2.92h.34c1.07,1.25,2.92.07,2.44-1.46l.22-.26c2.1.09,3.2,2.01,3,3.97Z" fill="#030303"/>
                            <path d="M96.32,68.81c-.25.16-.29.46-.44.75-.97,1.89-2.85,3.15-5,2.9s-3.73-1.72-4.17-3.63l.8-.73c.19-.17.38-.21.54-.15.37,1.46,1.65,2.81,3.33,2.65s2.96-1.73,3.13-3.32l1.45,1.02c.19.14.35.32.36.5Z" fill="#4fb0f5"/>
                            <path d="M91.5,63.32c.38.86.02,1.89-.71,2.29-.82.45-1.84.27-2.3-.58-.5-.93-.21-1.93.67-2.4.81-.44,1.92-.25,2.34.69Z" fill="#fdfdfd"/>
                          </g>
                        </g>
                      </g>
                    </g>
                    <g>
                      <path d="M63.86,135.76l-1.07,1.89c-.41.21-.81-.09-1.05-.48.1-.09.24-.19.28-.38-.45.06-1.18.19-1.4.66-.37.8-.25,1.77-.07,2.63,2.77.63,3.22,2.97,3.02,5.72l2.25-.16c-.18.26-.59.15-.93.17-.2.01-.21.73-.01.74l.82.08-2.24.12-.35,1.19c.4.21,0,.79-.42.66l-.21.27-1.86-.27c1.4.82,1.47,2.98.07,3.83s-2.7-.36-2.92-1.81c-.05-.32-.08-.97.26-1.07-.27-.02-.45-.25-.55-.69l-.89.21c-.52.29-.97.36-1.35.2-.62.25-.97-.22-.42-.58l1.78-.67c.3-.11.4-.23.34-.56.04-.44.51-.45.64-.04h.34s1.26,2.35,1.26,2.35c.18.19.46.27.71.16-1.35-1.89-2.2-4.25-1.47-6.55l-.24-.24c.99-2.7-.54-.89-.63.48l-.31.22c-.04.13-.09.13-.15,0-.16-.05-.08-.25-.23-.41-.38-.26-.18-.52.18-1.2l1.08-1.41-.1-.57s.06-.16.08-.2c.02-.08.03-.16.04-.25.02-.2.01-.39.01-.59,0-.49,0-.98.1-1.46.07-.3.17-.59.32-.87.04-.07.09-.14.12-.21.03-.06.02-.12.04-.18.04-.13.13-.25.24-.32.15-.11.34-.15.53-.19.52-.1,1.07-.14,1.55.08.08.04.16.08.22.15s.09.17.06.25c-.04.11-.17.16-.29.18-.29.03-.56-.1-.84-.16-.34-.07-.7-.04-1.03.08-.07.03-.14.06-.22.07-.15.01-.22-.06-.17-.19.03-.08.08-.15.17-.17.2-.06.36.13.4.3.07.47-.03,1-.28,1.57-.42.56.42,4.82.94,3.3-.5-1.71-.44-3.31.18-4.8l.4-.08c.09-.37.49-.55.73-.19.8-.22,1.5-.53,2.09-.93h.32c.24-.18.28-.07.15.31Z" fill="#060706"/>
                      <g>
                        <path d="M61.3,145.77c-.74.14-1.39.05-2.11-.11-.38-.96-.36-1.99.08-2.92l1.58-.43c.66,1.02.73,2.19.46,3.47Z" fill="#19707d"/>
                        <path d="M60.57,136.57c-1.58,2.45.42,5.07-.58,5.49-.5.21-.62-.09-.79-.47-.74-1.64-.77-3.47.13-5.01.43-.02.82-.2,1.24,0Z" fill="#c5bcb3"/>
                        <path d="M61.31,147.61c.74-1.85,1.11-4.4-.13-5.74-.26-.28-.41-.7-.25-1.03,2.67,1,2.25,4.41,1.33,6.97-.38-.01-.59-.03-.95-.2Z" fill="#96928a"/>
                        <path d="M57.57,147.43l-.34-1.29.83-2.66.35-.1c-.23,2.33.35,4.7,1.91,6.58-.53.58-1.28.3-1.58-.27l-1.18-2.27Z" fill="#b3aa9f"/>
                        <path d="M58.42,143.39l-.52,1.55c-.16.47-.32.91-.66,1.2v-.31c-.12-.62-.13-1.39,0-1.98,0-.95.44-1.9,1.2-2.62.25.23.48.62.38.91l-.4,1.25Z" fill="#e3dad1"/>
                        <path d="M63.72,135.46c-.16.45-.54.66-1.06.74l-1.35.19c.08-.18.24-.26.44-.35.93-.4,1.62-1.04,2.39-1.69-.03.49-.3.78-.42,1.12Z" fill="#e0cebf"/>
                        <path d="M60.75,150.61c.17.5-.1.79-.37.98s-.66.25-1.01.07c-.41-.2-.76-.54-.79-1.04.72.38,1.43.46,2.17-.01Z" fill="#312c28"/>
                        <path d="M60.89,146.93c.13.04,0,.47-.11.55-.24.19-1.45.04-1.47-.68.57.03,1.03-.05,1.58.13Z" fill="#b4b0a9"/>
                      </g>
                    </g>
                    <g>
                      <path d="M62.68,148.61c6.68,2.01,10.86,8.65,8.75,15.59-1.03,3.4-3.29,6.1-6.53,7.62-3.73,1.75-7.95,1.31-11.42-.89-.17-.15-.22-.39-.15-.73-5.01-3.32-6.23-10.2-3.37-15.35,1.2-2.15,4.95-5.7,7.56-5.57.23.01.37.03.5.28.19.52-.34,1.8.83,2.53.53.33,1.24.43,1.82,0,.86-.65.96-2.06.22-2.85-.35-.37-.83-.48-1.01-1.05l2.79.42Z" fill="#bfbcb9"/>
                      <path d="M58.03,149.56c-1.27-.01-2.43.51-3.55,1.15-3.91,2.23-5.77,6.22-5.49,10.75.21,3.46,3.44,7.99,5.93,10.34.21.19-1.31-1.05-1.44-.86-2.92-1.85-4.81-4.72-5.43-8.12-1.04-5.71,1.9-11.16,7.19-13.53.72-.32,1.48-.63,2.31-.71.31.09.38.73.47.98Z" fill="#ebeae4"/>
                    </g>
                    <path d="M45.77,21.79c-2.35-.69-4.8-.62-7.32-.42,2.63,2.38,5.29,5.33,8.88,5.95,1.51.26,2.96.14,4.51.21l-4.01.64c-3.05.49-6.26.68-9.33-.43,1.75,2.61,4.51,4.62,7.68,5.1-3.54.6-7.3.99-10.92-.11,2.03,2.23,4.34,3.28,7.31,2.81-2.59,1.13-4.73,2.41-6.76,4.19l-2.69,2.36c3.49.02,6.77-.67,9.85-2.17-.29.46-.7.69-1.07.94-2.86,1.92-7.58,2.22-11.2,2.01l2.05-1.6-.1-.31c1.77-1.57,3.62-3.09,5.56-4.55l-.04-.19c-1.93-.93-4.37-2.7-5.28-4.68-.26-.57-.44-1.04.23-.93,2.52,1.16,5.5,2.03,8.15,1.59-1.56-1.29-4.12-3.48-4.8-5.4-.26-.72-.31-.89.52-.78,2.28.84,4.67,1.57,7.13,1.46-2.79-1.88-5.32-4.02-7.61-6.42-.25-.59.11-.85,1.08-.77l5.01-.09c-2.32-1.79-4.8-3.09-7.91-3.32-5.44-.39-10.74,6.02-13.79,9.93l-.81-.15c-.91,1.07.99-1.33,1.07-.36-.27-.51.18-1.12-.76-1.39,1.89-2.34,3.78-4.64,6.06-6.71,3.05-2.76,6.96-4.3,11.11-4.06-1.93.39-3.84.83-5.64,1.75,5.21-.68,9.81,1.64,13.48,5.1l.9.73c-.24.1-.38.06-.52.09Z" fill="#060706"/>
                    <path d="M63.86,135.76c-.02-.12.18-.33.07-.39-.05-.15-.27.4-.36.46-.76.51-.11.95-2.27.55-.2.03-.52.29-.73.19-.3.28-1.01.42-1.24,0l-.59.02-2.32.4c-.16.03-.6,1.04-2.45.12,1.42-.07,3.56-.33,5.96-1.3,2.48-1,4.25-2.36,5.32-3.32-.33,1.26-.81,2.28-1.39,3.25Z" fill="#060706"/>
                  </g>
                  <path d="M122.77,157c-.64-2.02-1.57-5.31-2.84-7.1l-2.47-2.8c-.93-1.05-1.79-2.04-2.45-3.28.21,1.88.91,3.43,1.7,5.27-4.29-1.1-7.05-4.99-7.5-9.31-.47,1.7-.7,3.27-.89,5.01l-.58-3.02c-.36-1.63-.37-3.23-.03-4.81.95-3.66,1.85-7.36,2.69-11.1l.39-3.26c-.01-1.94.06-3.74.22-5.38.17-.35.57-.77.89-1.11,4.05-4.4,7-9.12,6.98-15.2,1.35,1.32,1.52,2.87,2.02,4.61,1.51-2.09,2.1-4.64,2.23-7.27l1.79,1.25c1.34.93,2.91,1.18,4.49,1.08-1.51,1.62-3.36,2.56-5.57,2.41l1.21,1.07c1.59,1.41,3.05,2.87,4.14,4.72,1.33,2.26,2.31,4.66,2.87,7.32-1.81-1.63-3.53-3.04-5.86-3.82,4.04,5.28,4.97,11.49,3.43,17.83l-2.8-4.53c-.61-.99-1.36-1.86-2.41-2.53,1.36,2.7,2.05,5.27,2.12,8.19.09,3.77-.55,7.42-1.94,11.04-2.26-2.55-3.66-5.58-4.41-8.82-.18.94,0,1.8.14,2.69l.74,4.66c.41,2.61,1.26,4.98,2.66,7.26l-2.78-1.27c1.16,2.81,1.97,5.55,2.16,8.48,0,.15-.02.36-.08.43s-.1,1.3-.23,1.29Z" fill="#262626" stroke="#060706" stroke-miterlimit="10"/>
                </g>
              </g>
            </g>
            <path d="M167.19,119.74c-3.14-.14-6.29-.27-9.43-.41,4.16,1.65,7.87,4.43,10.62,7.97-2.35-.71-4.69-1.41-7.04-2.12,2.94,2.6,5,6.19,5.77,10.04-2.99-2.64-6.37-4.84-9.99-6.52,1.03,2.46,2.05,4.92,3.08,7.38-3.3-4.16-7.16-7.88-11.43-11.04,2.34-.18,4.71.12,6.93.87-1.73-2.38-4.05-4.34-6.68-5.65,2.02.07,4.04.14,6.06.21-2.43-1.97-5.48-3.18-8.6-3.41,2.35-.21,4.76-.31,7.09-.65-1.21-.64-2.3-1.22-4.38-2.05,1.68.03,7.38.56,9.02.96s3.22.97,4.73,1.71c.78.38,1.54.81,2.27,1.28.42.27,1.55,1.43,1.97,1.43Z" fill="#353231"/>
            <path d="M68.37,161.85c-.61,4.61-3.44,8.88-7.45,11.23,3.61-.02,7.06-2.08,9.13-5.04,1.53-2.19,2.37-4.85,2.34-7.52s-.96-5.32-2.62-7.42c-1.27-1.6-3.34-3.4-5.4-3.82.4.71,1.12,1.35,1.58,2.06s.91,1.53,1.26,2.35c.71,1.63,1.14,3.39,1.26,5.17.07,1,.04,2-.09,3Z" fill="#d6d6d6" mix-blend-mode="multiply"/>
            <path d="M54.7,136.28c-.93-.67-1.45-1.77-1.86-2.85-.34-.89-.64-1.8-.88-2.73-.39.79-.5,1.7-.39,2.58s.44,1.71.87,2.48c.29.52.65,1.03,1.15,1.37.46.3,1.01.44,1.56.48.61.04,1.35-.03,1.85-.41.07-.06.19-.17.11-.27-.07-.09-.29-.03-.38-.02-.34,0-.68-.04-1.01-.13-.36-.1-.71-.27-1.02-.49Z" fill="#060706"/>
            <path d="M51.69,131.59c0,1.12.01,2.24.15,3.35s.39,2.21.88,3.22c.01.02-.41,0-.49-.08-.14-.14-.22-.42-.3-.6-.19-.44-.34-.9-.45-1.37-.22-.95-.28-1.94-.16-2.9.07-.55.19-1.09.37-1.61Z" fill="#060706"/>
            <path d="M153.48,188.02l-1.89,7.14c-.28,1.06-.38,2.07-.32,3.09-.89-.83-.8-3.15-1.93-4.71l-.19,4.27c-.16,3.63,2.19,6.5,2.34,9.25.16,2.9-.56,5.64-1.5,8.37l-2.23,6.46c.36-5.22,3.84-10.96.4-15.53-1.2-1.59-2.51-3.02-4.02-4.39,1.44,2.6,1.85,5.56,1.24,8.55-.39-1.88-1.07-3.41-2.57-4.39l-3.66-2.38c-1.88-1.23-3.54-2.44-5.08-4.17.46,1.74,1.68,2.8,2.52,4.33-1.31-.45-2.34-1.22-3.47-1.89-1.46-.88-2.74-1.81-4.07-3.01.19,1.44.48,2.79.91,4.09-2.08-1.78-3.77-3.88-5.07-6.26.3-.71.8-1.35,1.51-1.93.55-.73,1.75-1.78,2.41-2.38l.17.78c.28.87.33,1.7.79,2.47.75-1.68,1.65-3.29,2.74-4.77.61-.46.82.23.61.78,3.33-2.29,5.82-5.32,7.63-8.73.26-.1.44.03.6.25l-.12,3.6c2.96-2.42,4.82-5.88,6.04-9.46.26-.35.44-.38.62-.01-.18-.69.49-1.68.95-.76,1.01,3.65,2.44,7.19,4.44,10.42l.21.91Z" fill="#060706" mix-blend-mode="multiply" opacity=".05"/>
            <path d="M41.27,27.97c1.29.27,2.73.32,3.83-.41-1.72-1.24-3.44-2.49-5.17-3.73-.46-.33-.92-.67-1.27-1.12-.34-.45-.55-1.04-.42-1.59,1.92-.07,3.83-.14,5.75-.21-1.41-1.13-2.83-2.27-4.42-3.14s-3.36-1.47-5.17-1.43c-1.89.04-3.71.77-5.3,1.79-1.59,1.02-2.98,2.31-4.37,3.6,3.13-.3,6.33.54,8.96,2.25-.09,2.65,1.14,5.33,3.26,6.93-2.4-.96-4.81-1.92-7.21-2.88.17,1.08.48,2.13.91,3.13.77,1.76,1.92,3.35,3.36,4.63.72.64,1.5,1.2,2.34,1.66.51.28.7.42,1.2.08.52-.35,1.02-.75,1.53-1.12-1.55-.82-2.95-1.94-4.1-3.26-.12-.14-.24-.29-.3-.46-.05-.18-.02-.39.13-.51.14-.11.33-.1.51-.08,2.29.2,4.59.41,6.88.61-1.69-1.63-3.41-3.3-4.53-5.36.28-.05.57-.09.85-.14.94.23,1.92.57,2.74.75Z" fill="#060706" mix-blend-mode="multiply" opacity=".2"/>
            <path d="M62.18,47.71c.11.28.01.8.02,1.11,0,.39.01.78.01,1.18,0,.77.01,1.55.01,2.32,0,1.56-.02,3.12-.05,4.67,0,.43-.02.85-.03,1.28,0,.28-.13.83.03,1.06,1.08-2.81,1.28-6.19.72-9.13-.16-.85-.4-1.68-.71-2.49Z" fill="#060706" mix-blend-mode="multiply" opacity=".2"/>
            <path d="M134.21,34.73c1.87,1.66,4,2.77,6.19,3.25-1.96.98-4.11,1.2-6.14.61,3.34,1.8,6.68,3.6,10.02,5.4.25.13.53.31.6.66.08.37-.13.77-.38.92s-.55.11-.83.07c-2.29-.4-4.51-1.54-6.43-3.31,2.54,3.06,5.07,6.12,7.61,9.17-1.94-.35-3.81-1.36-5.4-2.91,1.66,3.04,3.32,6.07,4.98,9.11.46.84.94,1.8.83,2.83-2.2-.51-4.15-2.74-4.93-5.62-.15,1.42-.31,2.88-.08,4.29.29,1.8,1.19,3.33,2.25,4.44s2.31,1.85,3.53,2.59c.65.39,1.32.79,2.03.85s1.48-.28,1.88-1.1c.33-.69.35-1.57.36-2.39.05-6.02.09-12.05.14-18.07,0-.89.74-2.97.38-3.72-.36-.77-1.55-1.82-2.17-2.17-1.94-1.09-4.08-.39-6.02-1.48-.91-.51-1.93-.93-2.78-1.61-.73-.59-1.35-.77-2.2-.97l-3.45-.82Z" fill="#060706"/>
            <path d="M89.94,55.77c-.21.22-.33.73-.45,1.01-.16.36-.32.72-.47,1.08-.31.71-.62,1.42-.92,2.13-.61,1.43-1.21,2.87-1.79,4.32-.16.4-.32.79-.47,1.19-.1.26-.21.82-.44.97.11-3.01,1.25-6.2,2.92-8.68.48-.72,1.03-1.39,1.63-2.01Z" fill="#060706" mix-blend-mode="multiply" opacity=".2"/>
            <path d="M71.81,108.01c.19-.68.39-1.37.76-1.98.14-.23.39-.48.65-.4.15.05.25.19.28.34s.01.31-.02.46c-.15.87-.45,1.72-.87,2.5-.22.4-.46.77-.74,1.13-.21.27-.56.82-.89.93.06-.49.27-1,.41-1.48l.43-1.51Z" fill="#fbf6f5"/>
            <path d="M54.35,103.04c.05-.19.11-.38.25-.52s.35-.22.53-.13c.23.12.25.43.24.68-.04.8-.11,1.59-.23,2.38-.06.39-.13.78-.2,1.17-.05.24-.08.91-.29,1.05-.21-.24-.29-.77-.36-1.09-.09-.39-.14-.79-.17-1.19-.05-.79.03-1.58.24-2.35Z" fill="#fbf6f5"/>
          </g>
          <path d="M66.52,76.5c-.25.02-.5.04-.72.15s-.4.33-.4.58c0,.35.34.59.65.76,1.63.89,3.43,1.44,5.27,1.63.28.03.57.05.84-.03s.52-.27.6-.54c.1-.34-.1-.69-.33-.96-1.34-1.56-4.02-1.71-5.91-1.59Z" fill="#fdfdfc" opacity=".45"/>
          <g id="aVU7wv">
            <g>
              <path d="M61.33,171.42c-.34-.03-.53-.31-1.15-.3s-.82.29-1.17.31c-.3.01-.61-.09-.83-.3-.29-.28-.42-.68-.36-1.07.04-.28.2-.5.39-.7.24-.26.4-.76.84-1.21.14-.15.29-.27.46-.38.35-.21.77-.25,1.16-.12s.78.49,1,.85l.24.4c.1.16.19.31.31.45.1.11.19.21.26.34.13.23.16.47.11.73-.04.17-.08.34-.18.49-.24.35-.65.55-1.07.51Z"/>
              <path d="M59.43,167.13c-.31.26-.71.06-.96-.21-.37-.38-.55-.9-.48-1.44.04-.27.11-.53.24-.77.16-.31.45-.51.79-.37.18.08.34.2.46.36.44.56.55,1.32.27,1.98-.07.17-.18.33-.32.45Z"/>
              <path d="M61.91,166.95c-.28.26-.7.42-.99.11-.06-.07-.12-.14-.16-.22-.38-.72-.28-1.6.26-2.21.26-.29.67-.48.99-.19.1.09.17.2.23.32.15.29.22.61.21.94,0,.48-.2.93-.54,1.25Z"/>
              <path d="M62.83,169.1c-.25.01-.45-.13-.54-.35-.05-.13-.08-.26-.08-.41-.01-.39.11-.77.35-1.08.16-.21.35-.38.58-.51.3-.16.67-.23.9.05.08.11.14.23.16.37.1.53-.09,1.09-.46,1.49-.24.25-.56.43-.91.44Z"/>
              <path d="M58.11,168.57c-.11.3-.35.47-.67.42-.17-.03-.32-.08-.46-.18-.44-.29-.72-.77-.77-1.29-.03-.3,0-.68.22-.89.23-.21.6-.13.87.01.5.27.84.78.89,1.35.02.2,0,.39-.07.57Z"/>
            </g>
          </g>
          <g>
            <path d="M50.31,162.21v-2.87h-1.02v-.46h2.56v.46h-1.02v2.87h-.51Z"/>
            <path d="M53.34,162.28c-.27,0-.5-.05-.69-.15-.2-.1-.35-.23-.46-.4-.11-.17-.18-.37-.2-.6l.52-.03c.02.16.07.29.14.4.07.11.16.19.28.24s.26.08.43.08c.14,0,.27-.02.37-.05.1-.04.18-.09.23-.16.05-.07.08-.16.08-.26,0-.09-.02-.18-.07-.25-.05-.07-.13-.14-.26-.2-.13-.06-.31-.12-.56-.18-.27-.07-.48-.14-.64-.22-.16-.08-.27-.18-.35-.29-.07-.12-.11-.26-.11-.43,0-.19.05-.36.14-.5.09-.15.22-.26.4-.34.17-.08.38-.12.62-.12.25,0,.47.05.65.14.18.09.32.22.43.39.1.16.17.35.2.56l-.52.03c-.02-.13-.05-.24-.12-.34s-.15-.17-.25-.23c-.11-.06-.24-.08-.39-.08-.19,0-.35.04-.46.13-.11.09-.17.21-.17.36,0,.09.02.17.07.24.05.06.13.12.24.17.12.05.29.1.5.15.29.07.52.15.69.24s.29.21.36.34c.07.13.11.27.11.44,0,.2-.05.37-.15.52-.1.15-.24.26-.43.34s-.39.12-.63.12Z"/>
            <path d="M56.46,162.28c-.26,0-.49-.05-.69-.15-.2-.1-.35-.25-.45-.44-.11-.19-.16-.41-.16-.67v-2.16h.51v2.16c0,.25.07.45.21.58.14.14.33.21.58.21s.45-.07.58-.21.21-.33.21-.58v-2.16h.51v2.16c0,.26-.05.48-.16.67-.1.19-.25.33-.45.44-.19.1-.42.15-.69.15Z"/>
            <path d="M58.59,162.21v-3.34h.64l1.54,2.72v-2.72h.51v3.34h-.67l-1.52-2.66v2.66h-.51Z"/>
            <path d="M61.76,162.21l1.2-3.34h.64l1.2,3.34h-.54l-.31-.87h-1.36l-.3.87h-.54ZM62.76,160.88h1.05l-.53-1.52-.52,1.52Z"/>
            <path d="M65.23,162.21v-3.34h.7l.99,2.74.99-2.74h.7v3.34h-.51v-2.44l-.9,2.44h-.56l-.9-2.44v2.44h-.51Z"/>
            <path d="M69.35,162.21v-3.34h.51v3.34h-.51Z"/>
          </g>
        </g>
      </g>
    </g>
  </g>
</svg>